<?xml version="1.0" encoding="utf-8"?>
<!-- Generator: Adobe Illustrator 21.0.0, SVG Export Plug-In . SVG Version: 6.00 Build 0)  -->
<svg version="1.1" id="Calque_1" xmlns="http://www.w3.org/2000/svg" xmlns:xlink="http://www.w3.org/1999/xlink" x="0px" y="0px"
	 viewBox="0 0 684.6 606.8" style="enable-background:new 0 0 684.6 606.8;" xml:space="preserve">
<style type="text/css">
	.st0{opacity:0.72;}
	.st1{fill:#6D6E70;}
	.st2{fill:#6D6E70;stroke:#808080;stroke-width:0.8064;stroke-miterlimit:10;}
	.st3{fill:#58595B;}
	.st4{fill:#FFFFFF;stroke:url(#SVGID_1_);stroke-width:2.4193;stroke-miterlimit:10;}
	.st5{fill:#FFFFFF;stroke:url(#SVGID_2_);stroke-width:2.4193;stroke-miterlimit:10;}
	.st6{fill:#FFFFFF;stroke:url(#SVGID_3_);stroke-width:2.4193;stroke-miterlimit:10;}
	.st7{fill:#FFFFFF;stroke:url(#SVGID_4_);stroke-width:2.4193;stroke-miterlimit:10;}
	.st8{fill:#FFFFFF;stroke:url(#SVGID_5_);stroke-width:2.4193;stroke-miterlimit:10;}
	.st9{fill:#FFFFFF;stroke:url(#SVGID_6_);stroke-width:2.4193;stroke-miterlimit:10;}
	.st10{fill:#FFFFFF;stroke:url(#SVGID_7_);stroke-width:2.4193;stroke-miterlimit:10;}
	.st11{fill:#FFFFFF;stroke:url(#SVGID_8_);stroke-width:2.4193;stroke-miterlimit:10;}
	.st12{fill:#FFFFFF;stroke:url(#SVGID_9_);stroke-width:2.4193;stroke-miterlimit:10;}
	.st13{fill:#FFFFFF;stroke:url(#SVGID_10_);stroke-width:2.4193;stroke-miterlimit:10;}
	.st14{fill:#FFFFFF;stroke:url(#SVGID_11_);stroke-width:2.4193;stroke-miterlimit:10;}
	.st15{fill:#FFFFFF;stroke:url(#SVGID_12_);stroke-width:2.4193;stroke-miterlimit:10;}
	.st16{fill:#FFFFFF;stroke:url(#SVGID_13_);stroke-width:2.4193;stroke-miterlimit:10;}
	.st17{fill:#FFFFFF;stroke:url(#SVGID_14_);stroke-width:2.4193;stroke-miterlimit:10;}
	.st18{fill:#FFFFFF;stroke:url(#SVGID_15_);stroke-width:2.4193;stroke-miterlimit:10;}
</style>
<g>
	<g class="st0">
		<g>
			<g>
				<polygon class="st1" points="230.6,570.1 380.5,508.8 380.8,509.1 230.9,570.4 				"/>
			</g>
			<g>
				<polygon class="st1" points="156,480.6 156.1,480.2 380.7,508.8 380.6,509.1 				"/>
			</g>
			<g>
				<polygon class="st1" points="155.9,480.5 156.2,480.3 230.9,570.1 230.6,570.4 				"/>
			</g>
			<g>
				<polygon class="st1" points="155.9,480.2 278.2,446.7 278.4,447.1 156.1,480.6 				"/>
			</g>
			<g>
				<polygon class="st1" points="5.5,390 5.7,389.6 156.1,480.2 155.9,480.6 				"/>
			</g>
			<g>
				<polygon class="st1" points="91.5,327.9 91.8,327.8 156.2,480.3 155.8,480.5 				"/>
			</g>
			<g>
				<path class="st2" d="M5.6,389.8"/>
			</g>
			<g>
				<polygon class="st1" points="5.5,389.7 91.5,327.7 91.8,328 5.7,390 				"/>
			</g>
			<g>
				<polygon class="st1" points="5.4,389.8 61,193.8 61.4,193.9 5.8,389.9 				"/>
			</g>
			<g>
				<polygon class="st1" points="61.1,193.9 61.4,193.8 91.8,327.8 91.5,327.9 				"/>
			</g>
			<g>
				<polygon class="st1" points="91.6,327.7 214.4,278 214.6,278.3 91.8,328 				"/>
			</g>
			<g>
				<polygon class="st1" points="91.6,327.7 277,314.8 277,315.2 91.7,328 				"/>
			</g>
			<g>
				<polygon class="st1" points="91.6,328 91.7,327.7 278.4,446.7 278.2,447.1 				"/>
			</g>
			<g>
				<polygon class="st1" points="155.9,480.3 276.8,314.9 277.2,315.1 156.2,480.5 				"/>
			</g>
			<g>
				<polygon class="st1" points="155.8,480.4 214.3,278.1 214.7,278.2 156.2,480.5 				"/>
			</g>
			<g>
				<polygon class="st1" points="214.4,278.3 214.7,278 278.9,315.3 278.6,315.6 				"/>
			</g>
			<g>
				<polygon class="st1" points="380.6,508.8 536.8,515.2 536.9,515.6 380.7,509.2 				"/>
			</g>
			<g>
				<polygon class="st1" points="394.2,341.5 394.6,341.5 380.8,509 380.4,508.9 				"/>
			</g>
			<g>
				<polygon class="st1" points="278.1,447 278.4,446.8 380.8,508.8 380.5,509.1 				"/>
			</g>
			<g>
				<polygon class="st1" points="278.2,446.7 394.3,341.3 394.5,341.7 278.4,447.1 				"/>
			</g>
			<g>
				<polygon class="st1" points="276.8,315 277.2,315 278.5,446.9 278.1,446.9 				"/>
			</g>
			<g>
				<polygon class="st1" points="278.1,446.8 348.4,247.2 348.7,247.3 278.5,447 				"/>
			</g>
			<g>
				<polygon class="st1" points="276.9,314.9 348.4,247.1 348.7,247.4 277.1,315.2 				"/>
			</g>
			<g>
				<polygon class="st1" points="277,315.2 277,314.8 394.5,341.3 394.4,341.7 				"/>
			</g>
			<g>
				<path class="st2" d="M277,315"/>
			</g>
			<g>
				<polygon class="st1" points="394.4,341.7 394.5,341.3 490.4,368.7 490.3,369.1 				"/>
			</g>
			<g>
				<polygon class="st1" points="394.3,341.6 394.6,341.4 537,515.3 536.7,515.5 				"/>
			</g>
			<g>
				<polygon class="st1" points="490.2,368.9 490.6,368.8 537,515.3 536.6,515.5 				"/>
			</g>
			<g>
				<polygon class="st1" points="404.4,271.5 404.7,271.2 490.5,368.7 490.2,369 				"/>
			</g>
			<g>
				<polygon class="st1" points="490.3,368.7 613.7,329.8 613.8,330.2 490.4,369.1 				"/>
			</g>
			<g>
				
					<rect x="364" y="306.2" transform="matrix(0.1418 -0.9899 0.9899 0.1418 39.5099 658.4243)" class="st1" width="70.9" height="0.4"/>
			</g>
			<g>
				<polygon class="st1" points="348.5,247.4 348.6,247.1 404.6,271.2 404.4,271.5 				"/>
			</g>
			<g>
				<polygon class="st1" points="344.9,166.4 345.3,166.4 348.7,247.3 348.3,247.3 				"/>
			</g>
			<g>
				<polygon class="st1" points="348.5,247.1 468.3,240 468.3,240.4 348.6,247.5 				"/>
			</g>
			<g>
				<polygon class="st1" points="404.5,271.1 571.1,285.8 571,286.2 404.5,271.5 				"/>
			</g>
			<g>
				<polygon class="st1" points="404.4,271.2 468.2,240.1 468.4,240.4 404.6,271.5 				"/>
			</g>
			<g>
				<polygon class="st1" points="570.9,286.1 571.2,285.9 613.9,329.9 613.6,330.1 				"/>
			</g>
			<g>
				<polygon class="st1" points="570.9,285.9 652.6,189.3 652.9,189.6 571.2,286.2 				"/>
			</g>
			<g>
				<polygon class="st1" points="491.9,234.3 492.2,234 571.1,285.8 570.9,286.2 				"/>
			</g>
			<g>
				<polygon class="st1" points="468.3,240.1 492,234 492.1,234.3 468.4,240.4 				"/>
			</g>
			<g>
				<polygon class="st1" points="491.9,234.1 549.7,102.3 550,102.4 492.2,234.2 				"/>
			</g>
			<g>
				<polygon class="st1" points="492,234 652.7,189.2 652.8,189.6 492.1,234.3 				"/>
			</g>
			<g>
				<polygon class="st1" points="394.7,141 394.8,140.6 549.9,102.1 549.8,102.5 				"/>
			</g>
			<g>
				<polygon class="st1" points="549.9,102.1 652.8,189.2 652.7,189.6 549.8,102.5 				"/>
			</g>
			<g>
				<polygon class="st1" points="345.1,166.2 549.9,102.1 549.8,102.5 345.1,166.6 				"/>
			</g>
			<g>
				<polygon class="st1" points="345,166.2 394.7,140.6 394.8,141 345.2,166.6 				"/>
			</g>
			<g>
				<polygon class="st1" points="288.4,27.1 288.6,26.7 394.8,140.6 394.7,141 				"/>
			</g>
			<g>
				<polygon class="st1" points="110.7,87.9 394.8,140.6 394.7,141 110.6,88.3 				"/>
			</g>
			<g>
				<polygon class="st1" points="47.3,43.6 47.4,43.2 288.6,26.7 288.5,27.1 				"/>
			</g>
			<g>
				<polygon class="st1" points="193.7,147.3 288.4,26.7 288.6,27.1 193.9,147.6 				"/>
			</g>
			<g>
				<polygon class="st1" points="52.4,126.8 288.5,26.7 288.5,27.1 52.4,127.2 				"/>
			</g>
			<g>
				<polygon class="st1" points="47.2,43.5 47.4,43.2 110.8,88 110.5,88.3 				"/>
			</g>
			<g>
				<polygon class="st1" points="52.3,126.8 110.5,88 110.7,88.3 52.5,127.1 				"/>
			</g>
			<g>
				
					<rect x="152" y="66.7" transform="matrix(0.5801 -0.8145 0.8145 0.5801 -32.025 173.4436)" class="st1" width="0.4" height="102.1"/>
			</g>
			<g>
				<polygon class="st1" points="121.5,144.6 193.8,147.2 193.8,147.6 121.5,145 				"/>
			</g>
			<g>
				<polygon class="st1" points="193.7,147.6 193.9,147.3 257.9,192.6 257.7,192.9 				"/>
			</g>
			<g>
				<polygon class="st1" points="91.5,327.7 193.6,147.3 194,147.5 91.8,328 				"/>
			</g>
			<g>
				<polygon class="st1" points="51.7,129.1 52.1,129.1 61.4,193.8 61.1,193.9 				"/>
			</g>
			<g>
				<polygon class="st1" points="61.1,193.7 121.4,144.7 121.6,145 61.4,194 				"/>
			</g>
			<g>
				
					<rect x="61.2" y="193.1" transform="matrix(1 -5.871742e-03 5.871742e-03 1 -1.1323 0.9399)" class="st1" width="196.5" height="0.4"/>
			</g>
			<g>
				
					<rect x="115.9" y="87.6" transform="matrix(0.9794 -0.202 0.202 0.9794 -21.135 25.8467)" class="st1" width="0.4" height="57.7"/>
			</g>
			<g>
				<polygon class="st1" points="44.9,43 45.2,42.8 121.7,144.7 121.3,144.9 				"/>
			</g>
			<g>
				<polygon class="st1" points="121.3,144.8 121.7,144.8 91.8,327.9 91.5,327.8 				"/>
			</g>
			<g>
				<polygon class="st1" points="257.6,192.7 288.3,26.8 288.7,26.9 258,192.8 				"/>
			</g>
			<g>
				
					<rect x="250.7" y="178.8" transform="matrix(0.9653 -0.2611 0.2611 0.9653 -36.3636 84.195)" class="st1" width="96.1" height="0.4"/>
			</g>
			<g>
				<polygon class="st1" points="214.4,278 257.6,192.6 257.9,192.9 214.7,278.2 				"/>
			</g>
		</g>
		<g>
			<path class="st3" d="M569.8,291.5c-3-0.7-4.9-3.7-4.2-6.7c0.7-3,3.7-4.9,6.7-4.2c3,0.7,4.9,3.7,4.2,6.7
				C575.8,290.3,572.8,292.1,569.8,291.5z"/>
			<path class="st3" d="M489.1,374.3c-3-0.7-4.9-3.7-4.2-6.7c0.7-3,3.7-4.9,6.7-4.2c3,0.7,4.9,3.7,4.2,6.7
				C495.1,373.1,492.1,375,489.1,374.3z"/>
			<path class="st3" d="M490.8,239.6c-3-0.7-4.9-3.7-4.2-6.7c0.7-3,3.7-4.9,6.7-4.2c3,0.7,4.9,3.7,4.2,6.7
				C496.8,238.4,493.8,240.3,490.8,239.6z"/>
			<path class="st3" d="M347.3,252.7c-3-0.7-4.9-3.7-4.2-6.7c0.7-3,3.7-4.9,6.7-4.2c3,0.7,4.9,3.7,4.2,6.7
				C353.3,251.5,350.3,253.4,347.3,252.7z"/>
			<path class="st3" d="M393.2,347c-3-0.7-4.9-3.7-4.2-6.7c0.7-3,3.7-4.9,6.7-4.2c3,0.7,4.9,3.7,4.2,6.7
				C399.2,345.7,396.2,347.6,393.2,347z"/>
			<path class="st3" d="M275.8,320.5c-3-0.7-4.9-3.7-4.2-6.7c0.7-3,3.7-4.9,6.7-4.2c3,0.7,4.9,3.7,4.2,6.7
				C281.8,319.3,278.8,321.1,275.8,320.5z"/>
			<path class="st3" d="M403.3,276.8c-3-0.7-4.9-3.7-4.2-6.7c0.7-3,3.7-4.9,6.7-4.2c3,0.7,4.9,3.7,4.2,6.7
				C409.3,275.6,406.3,277.5,403.3,276.8z"/>
			<path class="st3" d="M192.6,152.9c-3-0.7-4.9-3.7-4.2-6.7c0.7-3,3.7-4.9,6.7-4.2c3,0.7,4.9,3.7,4.2,6.7
				C198.6,151.7,195.6,153.6,192.6,152.9z"/>
			<path class="st3" d="M60,199.3c-3-0.7-4.9-3.7-4.2-6.7c0.7-3,3.7-4.9,6.7-4.2c3,0.7,4.9,3.7,4.2,6.7C66,198.1,63,200,60,199.3z"
				/>
			<path class="st3" d="M90.4,333.3c-3-0.7-4.9-3.7-4.2-6.7c0.7-3,3.7-4.9,6.7-4.2c3,0.7,4.9,3.7,4.2,6.7
				C96.4,332.1,93.4,334,90.4,333.3z"/>
			<path class="st3" d="M213.3,283.6c-3-0.7-4.9-3.7-4.2-6.7c0.7-3,3.7-4.9,6.7-4.2c3,0.7,4.9,3.7,4.2,6.7
				C219.3,282.4,216.3,284.3,213.3,283.6z"/>
			<path class="st3" d="M51.2,132.4c-3-0.7-4.9-3.7-4.2-6.7c0.7-3,3.7-4.9,6.7-4.2c3,0.7,4.9,3.7,4.2,6.7
				C57.2,131.2,54.2,133.1,51.2,132.4z"/>
			<path class="st3" d="M343.9,171.9c-3-0.7-4.9-3.7-4.2-6.7c0.7-3,3.7-4.9,6.7-4.2c3,0.7,4.9,3.7,4.2,6.7
				C349.9,170.7,346.9,172.5,343.9,171.9z"/>
			<path class="st3" d="M154.8,485.9c-3-0.7-4.9-3.7-4.2-6.7c0.7-3,3.7-4.9,6.7-4.2c3,0.7,4.9,3.7,4.2,6.7
				C160.8,484.6,157.8,486.5,154.8,485.9z"/>
			<path class="st3" d="M4.4,395.3c-3-0.7-4.9-3.7-4.2-6.7c0.7-3,3.7-4.9,6.7-4.2c3,0.7,4.9,3.7,4.2,6.7
				C10.4,394,7.4,395.9,4.4,395.3z"/>
			<path class="st3" d="M379.4,514.4c-3-0.7-4.9-3.7-4.2-6.7c0.7-3,3.7-4.9,6.7-4.2c3,0.7,4.9,3.7,4.2,6.7
				C385.4,513.2,382.4,515.1,379.4,514.4z"/>
			<path class="st3" d="M229.5,575.7c-3-0.7-4.9-3.7-4.2-6.7c0.7-3,3.7-4.9,6.7-4.2c3,0.7,4.9,3.7,4.2,6.7
				C235.5,574.5,232.5,576.4,229.5,575.7z"/>
			<path class="st3" d="M535.6,520.8c-3-0.7-4.9-3.7-4.2-6.7c0.7-3,3.7-4.9,6.7-4.2c3,0.7,4.9,3.7,4.2,6.7
				C541.6,519.6,538.6,521.5,535.6,520.8z"/>
			<path class="st3" d="M277.1,452.4c-3-0.7-4.9-3.7-4.2-6.7c0.7-3,3.7-4.9,6.7-4.2c3,0.7,4.9,3.7,4.2,6.7
				C283.1,451.1,280.1,453,277.1,452.4z"/>
			<path class="st3" d="M612.5,335.4c-3-0.7-4.9-3.7-4.2-6.7c0.7-3,3.7-4.9,6.7-4.2c3,0.7,4.9,3.7,4.2,6.7
				C618.5,334.2,615.6,336.1,612.5,335.4z"/>
			<path class="st3" d="M651.5,194.9c-3-0.7-4.9-3.7-4.2-6.7c0.7-3,3.7-4.9,6.7-4.2c3,0.7,4.9,3.7,4.2,6.7
				C657.5,193.7,654.5,195.6,651.5,194.9z"/>
			<path class="st3" d="M548.6,107.8c-3-0.7-4.9-3.7-4.2-6.7c0.7-3,3.7-4.9,6.7-4.2c3,0.7,4.9,3.7,4.2,6.7
				C554.6,106.6,551.6,108.5,548.6,107.8z"/>
			<path class="st3" d="M393.5,146.2c-3-0.7-4.9-3.7-4.2-6.7c0.7-3,3.7-4.9,6.7-4.2c3,0.7,4.9,3.7,4.2,6.7
				C399.5,145,396.5,146.9,393.5,146.2z"/>
			<path class="st3" d="M287.3,32.3c-3-0.7-4.9-3.7-4.2-6.7c0.7-3,3.7-4.9,6.7-4.2c3,0.7,4.9,3.7,4.2,6.7
				C293.3,31.1,290.3,33,287.3,32.3z"/>
			<path class="st3" d="M256.5,198.2c-3-0.7-4.9-3.7-4.2-6.7c0.7-3,3.7-4.9,6.7-4.2c3,0.7,4.9,3.7,4.2,6.7
				C262.5,197,259.6,198.9,256.5,198.2z"/>
			<path class="st3" d="M120.3,150.3c-3-0.7-4.9-3.7-4.2-6.7c0.7-3,3.7-4.9,6.7-4.2c3,0.7,4.9,3.7,4.2,6.7
				C126.3,149.1,123.3,150.9,120.3,150.3z"/>
			<path class="st3" d="M109.4,93.6c-3-0.7-4.9-3.7-4.2-6.7c0.7-3,3.7-4.9,6.7-4.2c3,0.7,4.9,3.7,4.2,6.7
				C115.4,92.4,112.4,94.2,109.4,93.6z"/>
			<path class="st3" d="M46.1,48.8c-3-0.7-4.9-3.7-4.2-6.7c0.7-3,3.7-4.9,6.7-4.2c3,0.7,4.9,3.7,4.2,6.7
				C52.1,47.6,49.1,49.5,46.1,48.8z"/>
		</g>
	</g>
	
		<linearGradient id="SVGID_1_" gradientUnits="userSpaceOnUse" x1="1699.3923" y1="925.7527" x2="1758.9573" y2="925.7527" gradientTransform="matrix(-0.7071 0.7071 -0.7071 -0.7071 2096.8323 -290.538)">
		<stop  offset="0" style="stop-color:#086E9A"/>
		<stop  offset="1" style="stop-color:#31BDBF"/>
	</linearGradient>
	
		<ellipse transform="matrix(0.7071 -0.7071 0.7071 0.7071 -131.9751 236.5181)" class="st4" cx="219.5" cy="277.6" rx="28.6" ry="28.6"/>
	
		<linearGradient id="SVGID_2_" gradientUnits="userSpaceOnUse" x1="1476.0299" y1="1053.9242" x2="1530.2188" y2="1053.9242" gradientTransform="matrix(-0.7071 0.7071 -0.7071 -0.7071 2096.8323 -290.538)">
		<stop  offset="0" style="stop-color:#086E9A"/>
		<stop  offset="1" style="stop-color:#31BDBF"/>
	</linearGradient>
	
		<ellipse transform="matrix(0.7071 -0.7071 0.7071 0.7071 65.4073 212.0959)" class="st5" cx="288.7" cy="27.1" rx="25.9" ry="25.9"/>
	
		<linearGradient id="SVGID_3_" gradientUnits="userSpaceOnUse" x1="1617.6777" y1="1036.5951" x2="1691.1401" y2="1036.5951" gradientTransform="matrix(-0.7071 0.7071 -0.7071 -0.7071 2096.8323 -290.538)">
		<stop  offset="0" style="stop-color:#086E9A"/>
		<stop  offset="1" style="stop-color:#31BDBF"/>
	</linearGradient>
	
		<ellipse transform="matrix(0.7071 -0.7071 0.7071 0.7071 -46.6427 180.0392)" class="st6" cx="194" cy="146.3" rx="35.5" ry="35.5"/>
	
		<linearGradient id="SVGID_4_" gradientUnits="userSpaceOnUse" x1="1704.2025" y1="1149.4326" x2="1777.6649" y2="1149.4326" gradientTransform="matrix(-0.7071 0.7071 -0.7071 -0.7071 2096.8323 -290.538)">
		<stop  offset="0" style="stop-color:#086E9A"/>
		<stop  offset="1" style="stop-color:#31BDBF"/>
	</linearGradient>
	<ellipse transform="matrix(0.7071 -0.7071 0.7071 0.7071 -74.7756 74.9085)" class="st7" cx="53" cy="127.7" rx="35.5" ry="35.5"/>
	
		<linearGradient id="SVGID_5_" gradientUnits="userSpaceOnUse" x1="1820.8843" y1="980.0359" x2="1889.9684" y2="980.0359" gradientTransform="matrix(-0.7071 0.7071 -0.7071 -0.7071 2096.8323 -290.538)">
		<stop  offset="0" style="stop-color:#086E9A"/>
		<stop  offset="1" style="stop-color:#31BDBF"/>
	</linearGradient>
	
		<ellipse transform="matrix(0.7071 -0.7071 0.7071 0.7071 -205.3493 161.156)" class="st8" cx="91.9" cy="328.5" rx="33.3" ry="33.3"/>
	
		<linearGradient id="SVGID_6_" gradientUnits="userSpaceOnUse" x1="1463.5961" y1="898.3705" x2="1552.6826" y2="898.3705" gradientTransform="matrix(-0.7071 0.7071 -0.7071 -0.7071 2096.8323 -290.538)">
		<stop  offset="0" style="stop-color:#086E9A"/>
		<stop  offset="1" style="stop-color:#31BDBF"/>
	</linearGradient>
	
		<ellipse transform="matrix(0.7071 -0.7071 0.7071 0.7071 16.3005 320.6201)" class="st9" cx="395.2" cy="140.6" rx="43.3" ry="43.3"/>
	
		<linearGradient id="SVGID_7_" gradientUnits="userSpaceOnUse" x1="1340.3947" y1="815.9526" x2="1402.9604" y2="815.9526" gradientTransform="matrix(-0.7071 0.7071 -0.7071 -0.7071 2096.8323 -290.538)">
		<stop  offset="0" style="stop-color:#086E9A"/>
		<stop  offset="1" style="stop-color:#31BDBF"/>
	</linearGradient>
	
		<ellipse transform="matrix(0.7071 -0.7071 0.7071 0.7071 88.6538 418.8671)" class="st10" cx="549.9" cy="102.4" rx="30.1" ry="30.1"/>
	
		<linearGradient id="SVGID_8_" gradientUnits="userSpaceOnUse" x1="1776.8691" y1="763.8966" x2="1839.4351" y2="763.8966" gradientTransform="matrix(-0.7071 0.7071 -0.7071 -0.7071 2096.8323 -290.538)">
		<stop  offset="0" style="stop-color:#086E9A"/>
		<stop  offset="1" style="stop-color:#31BDBF"/>
	</linearGradient>
	
		<ellipse transform="matrix(0.7071 -0.7071 0.7071 0.7071 -235.2271 327.8358)" class="st11" cx="278.1" cy="447.9" rx="30.1" ry="30.1"/>
	
		<linearGradient id="SVGID_9_" gradientUnits="userSpaceOnUse" x1="1478.4657" y1="763.8966" x2="1533.448" y2="763.8966" gradientTransform="matrix(-0.7071 0.7071 -0.7071 -0.7071 2096.8323 -290.538)">
		<stop  offset="0" style="stop-color:#086E9A"/>
		<stop  offset="1" style="stop-color:#31BDBF"/>
	</linearGradient>
	
		<ellipse transform="matrix(0.7071 -0.7071 0.7071 0.7071 -21.5428 416.3468)" class="st12" cx="491.8" cy="234.2" rx="26.3" ry="26.3"/>
	
		<linearGradient id="SVGID_10_" gradientUnits="userSpaceOnUse" x1="1610.7312" y1="757.3782" x2="1693.7124" y2="757.3782" gradientTransform="matrix(-0.7071 0.7071 -0.7071 -0.7071 2096.8323 -290.538)">
		<stop  offset="0" style="stop-color:#086E9A"/>
		<stop  offset="1" style="stop-color:#31BDBF"/>
	</linearGradient>
	
		<ellipse transform="matrix(0.7071 -0.7071 0.7071 0.7071 -126.8769 378.116)" class="st13" cx="393" cy="342.2" rx="40.3" ry="40.3"/>
	
		<linearGradient id="SVGID_11_" gradientUnits="userSpaceOnUse" x1="1625.1792" y1="533.1828" x2="1723.2975" y2="533.1828" gradientTransform="matrix(-0.7071 0.7071 -0.7071 -0.7071 2096.8323 -290.538)">
		<stop  offset="0" style="stop-color:#086E9A"/>
		<stop  offset="1" style="stop-color:#31BDBF"/>
	</linearGradient>
	
		<ellipse transform="matrix(0.7071 -0.7071 0.7071 0.7071 -208.1103 530.1976)" class="st14" cx="535.9" cy="516.3" rx="47.8" ry="47.8"/>
	
		<linearGradient id="SVGID_12_" gradientUnits="userSpaceOnUse" x1="1743.3302" y1="648.0311" x2="1809.3617" y2="648.0311" gradientTransform="matrix(-0.7071 0.7071 -0.7071 -0.7071 2096.8323 -290.538)">
		<stop  offset="0" style="stop-color:#086E9A"/>
		<stop  offset="1" style="stop-color:#31BDBF"/>
	</linearGradient>
	
		<ellipse transform="matrix(0.7071 -0.7071 0.7071 0.7071 -246.673 419.0809)" class="st15" cx="382.5" cy="507.3" rx="31.8" ry="31.8"/>
	
		<linearGradient id="SVGID_13_" gradientUnits="userSpaceOnUse" x1="1889.7258" y1="710.8502" x2="1964.4298" y2="710.8502" gradientTransform="matrix(-0.7071 0.7071 -0.7071 -0.7071 2096.8323 -290.538)">
		<stop  offset="0" style="stop-color:#086E9A"/>
		<stop  offset="1" style="stop-color:#31BDBF"/>
	</linearGradient>
	
		<ellipse transform="matrix(0.7071 -0.7071 0.7071 0.7071 -334.8572 330.5127)" class="st16" cx="231.5" cy="569.5" rx="36.1" ry="36.1"/>
	
		<linearGradient id="SVGID_14_" gradientUnits="userSpaceOnUse" x1="1451.4027" y1="609.1392" x2="1523.9225" y2="609.1392" gradientTransform="matrix(-0.7071 0.7071 -0.7071 -0.7071 2096.8323 -290.538)">
		<stop  offset="0" style="stop-color:#086E9A"/>
		<stop  offset="1" style="stop-color:#31BDBF"/>
	</linearGradient>
	
		<ellipse transform="matrix(0.7071 -0.7071 0.7071 0.7071 -53.9342 531.1351)" class="st17" cx="614.2" cy="330.7" rx="35.1" ry="35.1"/>
	
		<linearGradient id="SVGID_15_" gradientUnits="userSpaceOnUse" x1="1328.6462" y1="681.7412" x2="1392.3823" y2="681.7412" gradientTransform="matrix(-0.7071 0.7071 -0.7071 -0.7071 2096.8323 -290.538)">
		<stop  offset="0" style="stop-color:#086E9A"/>
		<stop  offset="1" style="stop-color:#31BDBF"/>
	</linearGradient>
	
		<ellipse transform="matrix(0.7071 -0.7071 0.7071 0.7071 57.2379 517.0385)" class="st18" cx="652.7" cy="189.4" rx="30.7" ry="30.7"/>
	<g>
		<g>
			<path class="st1" d="M396.7,170.4c13.9,0,25.2-11.3,25.2-25.2c0-8.2-4-15.9-10.7-20.6l-0.1,0.1c0.1-2.7-0.6-5.4-2-7.9
				c-2.6-4.5-7.3-7.2-12.5-7.2c-5.2,0-9.8,2.7-12.5,7.2c-1.4,2.4-2.1,5.1-2,7.7c-6.7,4.7-10.8,12.4-10.8,20.7
				C371.5,159.1,382.9,170.4,396.7,170.4z M381.1,162.5c1-0.9,2.6-2,4.5-2.9c1.3,3.5,3,6.3,5,8.2C387,166.8,383.8,164.9,381.1,162.5
				z M395.8,168.5c-3.5-0.6-6.5-4.3-8.6-9.7c2.4-1,5.3-1.8,8.6-1.9V168.5z M395.8,155c-3.5,0.1-6.5,0.9-9.1,2c-1-3.2-1.6-7-1.7-10.9
				h7.7l3.1,5.3L395.8,155z M385.1,144.3c0.1-3.2,0.5-6.4,1.2-9.4l5.4,9.4H385.1z M397.7,168.5v-11.6c3.3,0.1,6.2,0.9,8.6,1.9
				C404.3,164.1,401.1,167.9,397.7,168.5z M408.4,146.1c-0.1,3.9-0.7,7.6-1.7,10.9c-2.6-1-5.6-1.8-9.1-2v-3.7l3.1-5.3L408.4,146.1z
				 M401.8,144.3l5.4-9.4c0.7,2.9,1.2,6.1,1.2,9.4H401.8z M402.9,167.7c2-1.9,3.8-4.7,5.1-8.2c1.9,1,3.4,2.1,4.5,2.9
				C409.8,164.9,406.5,166.8,402.9,167.7z M413.8,161.1c-1.2-1-3-2.3-5.3-3.4c1-3.4,1.7-7.4,1.7-11.6h9.8
				C419.9,151.9,417.5,157.2,413.8,161.1z M420.1,144.3h-9.8c-0.1-3.9-0.7-7.7-1.7-11.1c2.7-1.3,4.3-2.8,5.4-3.7
				C417.7,133.4,419.9,138.7,420.1,144.3z M411,126.6c0.6,0.5,1.2,1,1.7,1.5c-0.7,0.7-1.7,1.5-3,2.4
				C410.3,129.2,410.7,127.9,411,126.6z M385.9,117.7c2.3-3.9,6.4-6.3,10.9-6.3s8.6,2.4,10.9,6.3c2.3,3.9,2.3,8.6,0,12.6l-10.9,18.9
				l-10-17.3l0,0l0,0l-0.9-1.5C383.5,126.4,383.5,121.6,385.9,117.7z M382.5,126.6c0.2,1.3,0.6,2.5,1.2,3.7
				c-1.3-0.9-2.2-1.7-2.9-2.3C381.4,127.5,381.9,127.1,382.5,126.6z M379.6,129.3c1,1,2.7,2.5,5.3,3.8c-1,3.4-1.5,7.2-1.7,11.2
				l-9.8,0C373.6,138.6,375.8,133.4,379.6,129.3z M383.2,146.1c0.1,4.3,0.7,8.3,1.7,11.7c-2.3,1.2-4,2.4-5.2,3.4
				c-3.7-4-6.1-9.3-6.4-15.1H383.2z"/>
			<path class="st1" d="M396.7,129.2c3.7,0,6.8-3.1,6.8-6.8s-3.1-6.8-6.8-6.8c-3.7,0-6.8,3.1-6.8,6.8
				C389.9,126,393,129.2,396.7,129.2z M396.7,117.4c2.8,0,5,2.2,5,5s-2.3,5-5,5s-5-2.2-5-5C391.8,119.6,394,117.4,396.7,117.4z"/>
		</g>
	</g>
	<g>
		<g>
			<path class="st1" d="M38.2,143.9h28.2c2.9,0,5.3-2.4,5.3-5.3c0-2.9-2.4-5.3-5.3-5.3h-0.6l0-15.7c0-0.4-0.3-0.7-0.7-0.7
				c-0.4,0-0.7,0.3-0.7,0.7l0,15.8l-26.2,0c-2.9,0-5.3,2.4-5.3,5.3C32.9,141.5,35.3,143.9,38.2,143.9z M38.2,134.7l28.2,0
				c2.2,0,4,1.8,4,4c0,2.2-1.8,4-4,4l-28.2,0c-2.2,0-4-1.8-4-4S36,134.7,38.2,134.7z"/>
			<path class="st1" d="M38,140.5c0.4,0,0.7-0.3,0.7-0.7v-2.4c0-0.4-0.3-0.7-0.7-0.7c-0.4,0-0.7,0.3-0.7,0.7v2.4
				C37.3,140.2,37.6,140.5,38,140.5z"/>
			<path class="st1" d="M41.9,140.5c0.4,0,0.7-0.3,0.7-0.7l0-2.4c0-0.4-0.3-0.7-0.7-0.7c-0.4,0-0.7,0.3-0.7,0.7v2.4
				C41.2,140.2,41.5,140.5,41.9,140.5z"/>
			<path class="st1" d="M45.8,140.5c0.4,0,0.7-0.3,0.7-0.7v-2.4c0-0.4-0.3-0.7-0.7-0.7c-0.4,0-0.7,0.3-0.7,0.7l0,2.4
				C45.2,140.2,45.5,140.5,45.8,140.5z"/>
			<path class="st1" d="M63.9,139.3h3.4c0.4,0,0.7-0.3,0.7-0.7s-0.3-0.7-0.7-0.7h-3.4c-0.4,0-0.7,0.3-0.7,0.7S63.4,139.3,63.9,139.3
				z"/>
			<path class="st1" d="M64,113c0,0.5,0.4,0.9,0.9,0.9s0.9-0.4,0.9-0.9c0-0.5-0.4-0.9-0.9-0.9S64,112.5,64,113z M65.4,113
				c0,0.2-0.2,0.4-0.4,0.4s-0.4-0.2-0.4-0.4c0-0.2,0.2-0.4,0.4-0.4S65.4,112.8,65.4,113z"/>
			<path class="st1" d="M62.3,116.1c0.1,0.1,0.3,0.2,0.4,0.2c0.2,0,0.4-0.1,0.5-0.2c0.2-0.3,0.2-0.7-0.1-0.9
				c-0.3-0.2-1.2-1.1-1.1-2.3c0-1,0.8-1.8,1.1-2c0.3-0.2,0.3-0.7,0.1-0.9c-0.2-0.3-0.7-0.4-0.9-0.1c-0.4,0.4-1.5,1.4-1.6,3
				C60.6,114.5,61.8,115.7,62.3,116.1z"/>
			<path class="st1" d="M59.6,119.1c0.1,0.1,0.3,0.1,0.4,0.1c0.2,0,0.4-0.1,0.5-0.3c0.2-0.3,0.2-0.7-0.1-0.9
				c-0.6-0.5-2.7-2.4-2.6-5.2c0.1-2.6,1.9-4.3,2.6-4.9c0.3-0.2,0.3-0.7,0.1-0.9c-0.2-0.3-0.7-0.3-0.9-0.1c-0.9,0.7-3.1,2.8-3.1,5.9
				C56.4,116.2,58.9,118.5,59.6,119.1z"/>
			<path class="st1" d="M57.6,121.8c0.1,0.1,0.3,0.1,0.4,0.1c0.2,0,0.4-0.1,0.5-0.3c0.2-0.3,0.2-0.7-0.1-0.9c-1-0.8-4.4-3.7-4.2-8.1
				c0.1-4,3-6.6,4.2-7.5c0.3-0.2,0.4-0.6,0.1-0.9c-0.2-0.3-0.6-0.4-0.9-0.1c-1.4,1-4.6,4-4.8,8.5C52.6,117.7,56.4,121,57.6,121.8z"
				/>
			<path class="st1" d="M66.9,115.1c-0.3,0.2-0.3,0.7-0.1,0.9c0.1,0.1,0.3,0.2,0.5,0.2c0.1,0,0.3,0,0.4-0.2c0.5-0.4,1.7-1.6,1.5-3.4
				c-0.1-1.5-1.1-2.6-1.6-3c-0.3-0.2-0.7-0.2-0.9,0.1c-0.2,0.3-0.2,0.7,0.1,0.9c0.3,0.3,1,1,1.1,2C68.1,114,67.2,114.9,66.9,115.1z"
				/>
			<path class="st1" d="M70,119.2c0.1,0,0.3,0,0.4-0.1c0.8-0.6,3.2-2.9,3.1-6.3c-0.1-3.1-2.2-5.2-3.1-5.9c-0.3-0.2-0.7-0.2-0.9,0.1
				c-0.2,0.3-0.2,0.7,0.1,0.9c0.8,0.6,2.6,2.3,2.6,4.9c0.1,2.8-2,4.7-2.6,5.2c-0.3,0.2-0.3,0.7-0.1,0.9
				C69.6,119.1,69.9,119.2,70,119.2z"/>
			<path class="st1" d="M72.6,104.1c-0.3-0.2-0.7-0.2-0.9,0.1c-0.2,0.3-0.2,0.7,0.1,0.9c1.2,0.9,4.1,3.5,4.2,7.5
				c0.1,4.4-3.2,7.3-4.2,8.1c-0.3,0.2-0.4,0.6-0.1,0.9c0.1,0.2,0.3,0.3,0.5,0.3c0.1,0,0.3,0,0.4-0.1c1.2-0.9,4.9-4.1,4.8-9.2
				C77.2,108.1,74,105.2,72.6,104.1z"/>
		</g>
	</g>
	<g>
		<g>
			<path class="st1" d="M98.4,326.1c0-0.3,0.1-0.6,0.1-0.9c0-3-2.2-5.4-5-5.4c-1.7,0-3.3,0.9-4.2,2.4c-0.4-0.1-0.8-0.1-1.1-0.1
				c-2.5,0-4.6,1.9-4.9,4.3c-2,0.8-3.3,2.8-3.3,5c0,1.9,1.5,3.5,3.3,3.5h17.4c1.8,0,3.3-1.6,3.3-3.5c0-3-2.2-5.4-5-5.4L98.4,326.1
				L98.4,326.1z M102.5,331.5c0,1.1-0.8,2.1-1.9,2.1H83.2c-1,0-1.9-0.9-1.9-2.1c0-1.8,1.1-3.4,2.7-3.8l0.5-0.1V327
				c0-1.9,1.6-3.3,3.5-3.3c0.4,0,0.9,0.1,1.2,0.2l0.6,0.2l0.3-0.6c0.6-1.3,1.8-2.2,3.2-2.2c2,0,3.5,1.8,3.5,3.9
				c0,0.5-0.1,0.9-0.2,1.4l-0.3,1h2.4C100.9,327.6,102.5,329.4,102.5,331.5z"/>
			<path class="st1" d="M113.3,324.8c-1.1,0-2.1,0.7-2.3,1.8H107c-0.4-3.4-2.1-6.5-4.4-8.8l2.7-2.7c0.3,0.2,0.7,0.3,1.1,0.3
				c1.3,0,2.5-1.1,2.5-2.5s-1.1-2.5-2.5-2.5s-2.5,1.1-2.5,2.5c0,0.4,0.1,0.8,0.3,1.1l-2.7,2.8c-2.4-2-5.6-3.3-8.9-3.4l0-3.8
				c1-0.3,1.8-1.2,1.8-2.3c0-1.3-1.1-2.5-2.5-2.5s-2.5,1.1-2.5,2.5c0,1.1,0.7,2.1,1.8,2.3v3.8c-3.3,0.1-6.4,1.4-8.9,3.4l-2.8-2.8
				c0.2-0.3,0.3-0.7,0.3-1.1c0-1.3-1.1-2.5-2.5-2.5s-2.5,1.1-2.5,2.5s1.1,2.5,2.5,2.5c0.4,0,0.8-0.1,1.1-0.3l2.7,2.7
				c-2.3,2.3-4,5.4-4.4,8.9h-3.9c-0.3-1-1.2-1.8-2.3-1.8c-1.3,0-2.5,1.1-2.5,2.5s1.1,2.5,2.5,2.5c1.1,0,2.1-0.7,2.3-1.8h3.8
				c0,0.2,0,0.4,0,0.6c0,3.6,1.3,7,3.4,9.6l-2.6,2.6c-0.3-0.2-0.7-0.3-1.1-0.3c-1.3,0-2.5,1.1-2.5,2.5s1.1,2.5,2.5,2.5
				c1.4,0,2.5-1.1,2.5-2.5c0-0.4-0.1-0.8-0.3-1.1l2.5-2.5c2.6,2.6,6.2,4.4,10.1,4.5v3.5c-1,0.3-1.8,1.2-1.8,2.3
				c0,1.3,1.1,2.5,2.5,2.5s2.5-1.1,2.5-2.5c0-1.1-0.7-2.1-1.8-2.3v-3.5c4-0.2,7.5-1.9,10.1-4.5l2.7,2.7c-0.2,0.3-0.3,0.7-0.3,1.1
				c0,1.3,1.1,2.5,2.5,2.5c1.4,0,2.5-1.1,2.5-2.5s-1.1-2.5-2.5-2.5c-0.4,0-0.8,0.1-1.1,0.3l-2.7-2.7c2.1-2.6,3.4-5.9,3.4-9.6
				c0-0.2,0-0.4,0-0.6h3.8c0.3,1,1.2,1.8,2.3,1.8c1.3,0,2.5-1.1,2.5-2.5C115.8,325.9,114.7,324.8,113.3,324.8z M106.5,311.8
				c0.6,0,1.1,0.5,1.1,1.1c0,0.6-0.5,1.1-1.1,1.1s-1.1-0.5-1.1-1.1C105.4,312.3,105.9,311.8,106.5,311.8z M77.4,313.9
				c-0.6,0-1.1-0.5-1.1-1.1s0.5-1.1,1.1-1.1c0.6,0,1.1,0.5,1.1,1.1S78,313.9,77.4,313.9z M70.6,328.3c-0.6,0-1.1-0.5-1.1-1.1
				s0.5-1.1,1.1-1.1c0.6,0,1.1,0.5,1.1,1.1S71.2,328.3,70.6,328.3z M76.4,343.9c-0.6,0-1.1-0.5-1.1-1.1c0-0.6,0.5-1.1,1.1-1.1
				c0.6,0,1.1,0.5,1.1,1.1C77.4,343.5,77,343.9,76.4,343.9z M107.6,342c0.6,0,1.1,0.5,1.1,1.1c0,0.6-0.5,1.1-1.1,1.1
				s-1.1-0.5-1.1-1.1C106.6,342.5,107.1,342,107.6,342z M90.9,307.2c0-0.6,0.5-1.1,1.1-1.1c0.6,0,1.1,0.5,1.1,1.1
				c0,0.6-0.5,1.1-1.1,1.1C91.4,308.3,90.9,307.8,90.9,307.2z M93,349.6c0,0.6-0.5,1.1-1.1,1.1c-0.6,0-1.1-0.5-1.1-1.1
				s0.5-1.1,1.1-1.1C92.5,348.5,93,349,93,349.6z M91.9,342.4c-7.6,0-13.8-6.2-13.8-13.8c0-7.6,6.2-13.8,13.8-13.8
				c7.6,0,13.8,6.2,13.8,13.8C105.7,336.1,99.5,342.4,91.9,342.4z M113.3,328.3c-0.6,0-1.1-0.5-1.1-1.1c0-0.6,0.5-1.1,1.1-1.1
				s1.1,0.5,1.1,1.1C114.3,327.8,113.8,328.3,113.3,328.3z"/>
		</g>
	</g>
	<g>
		<g>
			<path class="st1" d="M515.3,491.4v9.4H559v-5c0-1.3-1.1-2.5-2.5-2.5l-22.6,0c-0.3,0-0.5-0.1-0.6-0.3l-2-2.9
				c-0.4-0.7-1.2-1.1-2-1.1h-11.7C516.4,489.1,515.3,490.1,515.3,491.4z M530,491.1l2,2.9c0.4,0.7,1.2,1.1,2,1.1h22.6
				c0.4,0,0.8,0.3,0.8,0.8v3.4l-40.4,0v-7.8c0-0.3,0.3-0.7,0.7-0.7h11.7C529.7,490.7,529.9,490.8,530,491.1z"/>
			<path class="st1" d="M559.1,524.7v-22.8h-43.8v22.8c0,1.3,1.1,2.5,2.5,2.5h38.8C558,527.1,559.1,526.1,559.1,524.7z M517,524.7
				v-21.2h40.4v21.2c0,0.4-0.3,0.8-0.8,0.8h-38.8C517.4,525.5,517,525.1,517,524.7z"/>
			<path class="st1" d="M536.4,529.1v5.6c0,0.4,0.4,0.8,0.8,0.8c0.4,0,0.8-0.4,0.8-0.8v-5.6c0-0.4-0.4-0.8-0.8-0.8
				C536.8,528.3,536.4,528.6,536.4,529.1z"/>
			<path class="st1" d="M545.5,536.4H529v8h16.5V536.4z M543.8,542.7h-13.1V538h13.1L543.8,542.7z"/>
			<path class="st1" d="M520.3,539.5c-0.4-1.4-1.7-2.5-3.2-2.5c-1.8,0-3.3,1.5-3.3,3.3s1.5,3.3,3.3,3.3c1.6,0,2.8-1.1,3.2-2.5h6.1
				c0.4,0,0.8-0.4,0.8-0.8c0-0.4-0.4-0.8-0.8-0.8H520.3z M517.2,542c-0.9,0-1.6-0.7-1.6-1.6s0.7-1.6,1.6-1.6s1.6,0.7,1.6,1.6
				S518,542,517.2,542z"/>
			<path class="st1" d="M560.2,540.3c0-1.8-1.5-3.3-3.3-3.3c-1.6,0-2.8,1.1-3.2,2.5h-5.8c-0.4,0-0.8,0.4-0.8,0.8
				c0,0.4,0.4,0.8,0.8,0.8l5.8,0c0.4,1.4,1.7,2.5,3.2,2.5C558.8,543.7,560.2,542.2,560.2,540.3z M556.9,542c-0.9,0-1.6-0.7-1.6-1.6
				s0.7-1.6,1.6-1.6s1.6,0.7,1.6,1.6S557.8,542,556.9,542z"/>
		</g>
	</g>
	<g>
		<g>
			<path class="st1" d="M413.5,333.4c0-2.6-1.7-4.9-4.2-6c0.2-0.7,0.3-1.4,0.3-2.2c0-4.6-4.1-8.3-9.2-8.3c-1.8,0-3.6,0.5-5.1,1.4
				c-1.8-2.2-4.6-3.5-7.6-3.5c-5.2,0-9.4,3.8-9.4,8.5c0,1.1,0.2,2.2,0.7,3.2c-2,1.4-3.2,3.7-3.2,6c0,3.3,2.5,6.4,6.1,7.3l0.1,0.1
				h6.4l0,0c0.4,0,0.8-0.4,0.8-0.8c0-0.4-0.4-0.8-0.8-0.8h-6.2c-2.8-0.8-4.7-3.1-4.7-5.7c0-2,1.1-3.8,3-5l0.7-0.4l-0.4-0.7
				c-0.6-1-0.8-2-0.8-3.1c0-3.8,3.4-6.8,7.7-6.8c2.8,0,5.3,1.3,6.7,3.4l0.5,0.7l0.7-0.5c1.3-1,3.1-1.5,4.8-1.5c4.2,0,7.6,3,7.6,6.7
				c0,0.8-0.2,1.6-0.5,2.4l-0.4,0.8l0.9,0.3c2.3,0.7,3.8,2.6,3.8,4.7c0,2.7-2.5,4.8-5.7,4.8c-0.1,0-1.9,0-4.4,0l0,0
				c-0.4,0-0.8,0.4-0.8,0.8c0,0.4,0.4,0.8,0.8,0.8c2.6,0,4.3,0,4.4,0C410.3,339.9,413.5,337,413.5,333.4z"/>
			<path class="st1" d="M379.9,353.3v14.6c0,1.1,0.8,1.9,1.9,1.9l25.7,0c0.5,0,1-0.2,1.3-0.6c0.3-0.3,0.6-0.8,0.6-1.3v-14.6
				c0-1.1-0.8-1.9-1.9-1.9l-25.7,0C380.8,351.4,379.9,352.2,379.9,353.3z M381.6,366.9V354l7.8,4.9L381.6,366.9z M382.7,368.1
				l8.1-8.3l3.8,2.4l3.7-2.3l8.4,8.2L382.7,368.1L382.7,368.1z M407.8,353.8v13l-8.1-7.8L407.8,353.8z M405.8,353.1l-11.2,7.2
				l-11.3-7.2H405.8z"/>
			<path class="st1" d="M390.9,345.7c0.4,0,0.8-0.4,0.8-0.8v-10.9l2.2,2.2c0.3,0.3,0.8,0.3,1.2,0c0.3-0.3,0.3-0.8,0-1.2l-4-4
				l-4.2,4.1c-0.3,0.3-0.3,0.8,0,1.2c0.2,0.2,0.4,0.2,0.6,0.2c0.2,0,0.4-0.1,0.6-0.2l1.9-1.9v10.6
				C390.1,345.3,390.4,345.7,390.9,345.7z"/>
			<path class="st1" d="M398.9,333.6c-0.4,0-0.8,0.4-0.8,0.8V345l-1.9-1.9c-0.3-0.3-0.8-0.3-1.2,0c-0.3,0.3-0.3,0.8,0,1.2l4.2,4.2
				l4-4c0.3-0.3,0.3-0.8,0-1.2c-0.3-0.3-0.8-0.3-1.2,0l-2.2,2.2v-11C399.8,333.9,399.4,333.6,398.9,333.6z"/>
		</g>
	</g>
	<g>
		<g>
			<path class="st1" d="M611.6,339.7c0.4,0.3,0.8,0.3,1.3,0.3c0.5,0,1-0.2,1.5-0.5l1.9-1.5c0.6-0.5,0.7-1.3,0.3-1.9l-1.3-1.7
				c-0.4-0.6-1.3-0.7-1.9-0.3l-0.9,0.7c-1-0.7-1.8-1.5-2.5-2.5c-0.6-0.8-1-1.6-1.3-2.4l0.9-0.7c0.3-0.2,0.5-0.5,0.6-0.9
				c0-0.3,0-0.7-0.3-1l-1.3-1.7c-0.5-0.6-1.3-0.7-1.9-0.3l-1.9,1.5c-0.8,0.6-1.1,1.7-0.8,2.6c0.6,2,1.5,3.8,2.7,5.4
				C607.8,336.8,609.6,338.4,611.6,339.7z M605.3,327.9l1.9-1.4h0c0,0,0,0,0,0l1.3,1.7c0,0,0,0,0,0.1l-1.7,1.3l0.1,0.4
				c0.4,1.1,1,2.2,1.7,3.2c0.9,1.2,2,2.2,3.2,3l0.4,0.3l1.6-1.3c0,0,0.1,0,0.1,0l1.3,1.7c0,0,0,0.1,0,0.1l-1.9,1.5
				c-0.3,0.3-0.8,0.3-1.2,0c-1.3-0.8-3.1-2.2-4.7-4.4c-1.1-1.5-2-3.2-2.6-5C604.8,328.7,604.9,328.2,605.3,327.9z"/>
			<path class="st1" d="M614.8,328.9c0.7,1,0.8,2,0.8,2.5c0,0.3,0.3,0.7,0.7,0.7s0.7-0.3,0.7-0.7c0-0.7-0.1-2-1-3.3
				c-0.7-1-1.8-1.7-3-2c-0.3-0.1-0.7,0.1-0.8,0.5c-0.1,0.3,0.1,0.7,0.5,0.8C613.2,327.5,614.1,327.9,614.8,328.9z"/>
			<path class="st1" d="M613.5,323.6c-0.3-0.1-0.7,0.1-0.8,0.5c-0.1,0.3,0.1,0.7,0.4,0.8c0.9,0.2,2.5,0.8,3.7,2.5s1.3,3.3,1.3,4
				c0,0.3,0.3,0.7,0.7,0.7l0,0c0.3,0,0.7-0.3,0.7-0.7c0-0.8-0.1-2.8-1.6-4.8C616.5,324.6,614.5,323.9,613.5,323.6z"/>
			<path class="st1" d="M611.6,329.1c-0.1,0.3,0.1,0.7,0.5,0.8c0.3,0.1,0.5,0.2,0.7,0.4c0.2,0.3,0.2,0.6,0.2,0.7
				c0,0.3,0.3,0.7,0.7,0.7s0.7-0.3,0.7-0.7c0-0.3,0-0.9-0.5-1.5c-0.2-0.3-0.7-0.7-1.4-0.9C612.1,328.6,611.7,328.8,611.6,329.1z"/>
			<path class="st1" d="M617.7,351.1c0-2.2-1.7-4.1-3.8-4.4c0.7-0.6,1.2-1.5,1.2-2.5c0-1.7-1.4-3.1-3.1-3.1c-1.7,0-3.1,1.4-3.1,3.1
				c0,1,0.5,1.9,1.2,2.4c-2.2,0.3-4,2.1-4,4.4v2.2h11.6L617.7,351.1z M612,342.4c1,0,1.8,0.8,1.8,1.8c0,1-0.8,1.8-1.8,1.8
				c-1,0-1.8-0.8-1.8-1.8C610.1,343.2,611,342.4,612,342.4z M607.4,352v-0.9c0-1.7,1.4-3.1,3.1-3.1h2.7c1.7,0,3.1,1.4,3.1,3.1v0.9
				L607.4,352z"/>
			<path class="st1" d="M590.3,324.2v2.2H602v-2.2c0-2.2-1.7-4.1-3.8-4.4c0.7-0.6,1.2-1.5,1.2-2.5c0-1.7-1.4-3.1-3.1-3.1
				s-3.1,1.4-3.1,3.1c0,1,0.5,1.9,1.2,2.4C592.1,320,590.3,321.9,590.3,324.2z M596.2,315.5c1,0,1.8,0.8,1.8,1.8
				c0,1-0.8,1.8-1.8,1.8s-1.8-0.8-1.8-1.8S595.2,315.5,596.2,315.5z M594.8,321h2.7c1.7,0,3.1,1.4,3.1,3.1v0.9h-9v-0.9
				C591.7,322.5,593,321,594.8,321z"/>
			<path class="st1" d="M633.4,324.9c0-2.2-1.7-4.1-3.8-4.4c0.7-0.6,1.2-1.5,1.2-2.5c0-1.7-1.4-3.1-3.1-3.1s-3.1,1.4-3.1,3.1
				c0,1,0.5,1.9,1.2,2.4c-2.2,0.3-4,2.1-4,4.4v2.2h11.6L633.4,324.9L633.4,324.9z M627.7,316.2c1,0,1.8,0.8,1.8,1.8
				s-0.8,1.8-1.8,1.8c-1,0-1.8-0.8-1.8-1.8C625.9,317,626.7,316.2,627.7,316.2z M632.1,325.8h-9v-0.9c0-1.7,1.4-3.1,3.1-3.1h2.7
				c1.7,0,3.1,1.4,3.1,3.1V325.8z"/>
			<path class="st1" d="M594.6,327.1c-0.3-0.1-0.7,0.1-0.8,0.4c-0.5,1.7-0.7,3.4-0.7,5.1c0,7.7,4.6,14.6,11.8,17.5
				c0.1,0,0.2,0,0.3,0c0.3,0,0.5-0.2,0.6-0.4c0.1-0.3,0-0.7-0.3-0.9c-6.7-2.7-11-9.1-11-16.3c0-1.6,0.2-3.2,0.7-4.8
				C595.2,327.5,595,327.2,594.6,327.1z"/>
			<path class="st1" d="M618.5,348.9c-0.3,0.1-0.5,0.5-0.3,0.9c0.1,0.3,0.3,0.4,0.6,0.4c0.1,0,0.2,0,0.3,0
				c7.2-2.9,11.8-9.7,11.8-17.5c0-1.5-0.2-3-0.5-4.4c-0.1-0.3-0.4-0.6-0.8-0.5c-0.3,0.1-0.6,0.4-0.5,0.8c0.3,1.3,0.5,2.7,0.5,4.1
				C629.5,339.8,625.2,346.2,618.5,348.9z"/>
			<path class="st1" d="M623.4,318.5c0.2-0.3,0.2-0.7-0.1-0.9c-3.3-2.5-7.2-3.7-11.3-3.7c-4.3,0-8.4,1.4-11.7,4.1
				c-0.3,0.2-0.3,0.7-0.1,0.9c0.1,0.2,0.3,0.3,0.5,0.3c0.1,0,0.3,0,0.4-0.1c3.1-2.5,6.9-3.8,10.9-3.8c3.8,0,7.5,1.2,10.5,3.5
				C622.8,318.8,623.2,318.8,623.4,318.5z"/>
		</g>
	</g>
	<g>
		<g>
			<path class="st1" d="M660.9,168.8h-11.1v15.3h11.1V168.8z M659.8,183.1h-8.9v-8.4h8.9V183.1z M659.8,173.5h-8.9v-1h8.9V173.5z
				 M659.8,171.4h-8.9v-1.5h8.9V171.4z"/>
			<path class="st1" d="M655.4,181.1c0.9,0,1.6-0.7,1.6-1.6s-0.7-1.6-1.6-1.6c-0.9,0-1.6,0.7-1.6,1.6S654.5,181.1,655.4,181.1z
				 M655.4,179c0.3,0,0.5,0.2,0.5,0.5c0,0.3-0.2,0.5-0.5,0.5s-0.5-0.2-0.5-0.5S655.1,179,655.4,179z"/>
			<path class="st1" d="M672.5,192.2h-11.8c-0.6,0-1.1,0.5-1.1,1.1v8.8c0,0.6,0.5,1.1,1.1,1.1h5.3v0.9h-2c-0.3,0-0.6,0.3-0.6,0.6
				c0,0.3,0.3,0.6,0.6,0.6h5.1c0.3,0,0.6-0.3,0.6-0.6c0-0.3-0.3-0.6-0.6-0.6h-2v-0.9h5.3c0.6,0,1.2-0.5,1.2-1.2v-8.7
				C673.7,192.7,673.2,192.2,672.5,192.2z M672.6,202.1C672.6,202.2,672.5,202.2,672.6,202.1l-11.8,0.1c0,0,0,0,0,0v-0.9h11.8V202.1
				z M672.6,200.2h-11.8v-6.8c0,0,0,0,0,0h11.7c0,0,0,0,0,0L672.6,200.2L672.6,200.2z"/>
			<path class="st1" d="M650,192.2h-11.8c-0.6,0-1.1,0.5-1.1,1.1v8.8c0,0.6,0.5,1.1,1.1,1.1h5.3v0.9h-2c-0.3,0-0.6,0.3-0.6,0.6
				c0,0.3,0.3,0.6,0.6,0.6h5.1c0.3,0,0.6-0.3,0.6-0.6c0-0.3-0.3-0.6-0.6-0.6h-2v-0.9h5.3c0.6,0,1.2-0.5,1.2-1.2v-8.7
				C651.1,192.7,650.6,192.2,650,192.2z M650,202.1C650,202.2,650,202.2,650,202.1l-11.8,0.1c0,0,0,0,0,0v-0.9H650V202.1z
				 M650,200.2l-11.8,0v-6.8c0,0,0,0,0,0l11.7,0c0,0,0,0,0,0L650,200.2L650,200.2z"/>
			<path class="st1" d="M666.7,191.6c0.3,0,0.6-0.3,0.6-0.6v-3.6h-11.3V185c0-0.3-0.3-0.6-0.6-0.6s-0.6,0.3-0.6,0.6v2.4l-11.3,0v3.6
				c0,0.3,0.3,0.6,0.6,0.6s0.6-0.3,0.6-0.6v-2.5l21.5,0v2.5C666.1,191.4,666.4,191.6,666.7,191.6z"/>
		</g>
	</g>
	<g>
		<path class="st1" d="M492.2,225.6l1.5,2.6l7.8-4.5l-1.5-2.6L492.2,225.6z M494,226.9l-0.5-0.8l6-3.5l0.5,0.8L494,226.9z"/>
		
			<rect x="497.8" y="226.8" transform="matrix(0.8661 -0.4999 0.4999 0.8661 -46.8864 279.5175)" class="st1" width="1" height="1"/>
		<rect x="499.5" y="225.8" transform="matrix(0.866 -0.5001 0.5001 0.866 -46.1564 280.3806)" class="st1" width="1" height="1"/>
		
			<rect x="496.1" y="227.8" transform="matrix(0.8661 -0.4999 0.4999 0.8661 -47.6226 278.7945)" class="st1" width="1" height="1"/>
		<path class="st1" d="M499.8,238.1v-4.1l5.2-3c1.2-0.7,1.6-2.2,0.9-3.4l-4-6.9c-0.4-0.7-1.8-1.7-3.4-0.9l-15.3,8.9
			c-1,0.5-1.4,1.7-1.1,2.7l-5.5,0.6c-0.5,0-0.9,0.3-1.1,0.8c-0.2,0.4-0.2,1,0,1.4l5.5,9.5c0.2,0.4,0.7,0.7,1.3,0.7
			c0.4,0,0.9-0.2,1.2-0.6l3.2-4.4c1.2,1.2,2.6,0.5,2.9,0.3l6.1-3.5v2.5c-0.6,0.6-1,1.5-1,2.4c0,1.9,1.5,3.5,3.5,3.5
			c0.9,0,1.8-0.3,2.5-1h5v-4h-4.3C501,239,500.5,238.4,499.8,238.1z M482.7,243.2c-0.1,0.1-0.3,0.2-0.4,0.2c-0.2,0-0.3-0.1-0.4-0.2
			l-5.5-9.5c-0.1-0.1-0.1-0.3,0-0.4c0.1-0.1,0.2-0.2,0.4-0.2l5.7-0.6l3.6,6.3L482.7,243.2z M489.2,238.9c-0.8,0.4-1.8-0.1-2-0.5
			l-4-6.9c-0.4-0.7-0.1-1.6,0.5-2l15.3-8.9c0.9-0.4,1.8,0.1,2,0.5l4,6.9c0.4,0.7,0.1,1.6-0.5,2L489.2,238.9z M504.7,242.7h-4.4
			c0,0-0.6,1-2,1c-1.4,0-2.5-1.1-2.5-2.5c0-1.2,1-2,1-2v-3.5l2-1.1v4.2l0.3,0.1c0.7,0.2,1.2,0.8,1.5,1.5l0.1,0.3h4V242.7z"/>
	</g>
	<g>
		<path class="st1" d="M556.4,106.6c-0.4-0.4-1.3-0.9-2.1,0l-2.1,2.1c-0.2,0.2-1.1,1-2.1,0l-10.8-10.8c-0.6-0.6-0.6-1.6,0-2.1
			l2.1-2.1c0.6-0.6,0.6-1.6,0-2.1l-3.3-3.3c-0.4-0.4-1.3-0.9-2.1,0l-1.8,1.7c-1.6,1.6-2.5,3.8-2.5,6.1s0.9,4.5,2.5,6.1l11.5,11.5
			c2.2,2.2,5.4,3.1,8.3,2.2c1.5-0.4,2.8-1.2,3.9-2.2l1.8-1.8c0.6-0.6,0.6-1.6,0-2.1L556.4,106.6z M536.6,88.9c0.3-0.3,0.6-0.2,0.7,0
			l3.3,3.3c0.2,0.2,0.2,0.5,0,0.7l-0.7,0.7l-4-4L536.6,88.9z M557.1,113c-0.9,1-2.1,1.6-3.4,2c-2.6,0.7-5.4-0.1-7.4-2l-11.5-11.5
			c-1.4-1.5-2.2-3.4-2.2-5.4c0-2,0.8-4,2.2-5.4l0.4-0.4l4,4l-0.7,0.7c-1,1-1,2.6,0,3.6l10.8,10.8c1.6,1.6,3.2,0.4,3.6,0l0.7-0.7l4,4
			L557.1,113z M558.9,111.2l-0.8,0.7l-4-4l0.7-0.7c0.2-0.2,0.5-0.2,0.7,0l3.3,3.3C559.1,110.7,559.1,111,558.9,111.2z"/>
		<path class="st1" d="M559,84.7l-10.2,0c-2,0-3.6,1.6-3.6,3.6v3.1c0,1.5,1,2.8,2.3,3.4l-0.5,3.3l4.8-3.1h7.1c2,0,3.6-1.6,3.6-3.6
			v-3.1C562.6,86.3,560.9,84.7,559,84.7z M561.5,91.3c0,1.4-1.1,2.5-2.5,2.5h-7.3l-3.2,2l0.3-2l-0.5-0.1c-1.2-0.3-2-1.3-2-2.5v-3.1
			c0-1.4,1.1-2.5,2.5-2.5h10.2c1.4,0,2.5,1.1,2.5,2.5L561.5,91.3L561.5,91.3z"/>
		<rect x="548.8" y="87.8" class="st1" width="10.2" height="1"/>
		<rect x="553.4" y="90.8" class="st1" width="1" height="1"/>
		<rect x="551.4" y="90.8" class="st1" width="1" height="1"/>
		<rect x="555.4" y="90.8" class="st1" width="1" height="1"/>
	</g>
	<g transform="translate(0,-1020.3622)">
		<path class="st1" d="M366.9,1511.3c-0.3,0-0.5,0.2-0.5,0.5v9h-0.5c-0.3,0-0.5,0.2-0.5,0.5v3.2c0,0.3,0.2,0.5,0.5,0.5h1.6h14.9h1.6
			c0.3,0,0.5-0.2,0.5-0.5v-3.2c0-0.3-0.2-0.5-0.5-0.5h-0.5v-9c0-0.3-0.2-0.5-0.5-0.5H366.9z M367.4,1512.4h14.9v8.5h-14.9V1512.4z
			 M386.5,1515.5c-0.7,0-1.4,0.2-2.1,0.4l0.4,1c2.3-0.9,5-0.2,6.6,1.7c1.4,1.7,1.7,4.1,0.9,6.1l-0.6-0.3c-0.4-0.2-0.8,0.1-0.7,0.5
			l0.5,1.6c0.1,0.1,0.2,0.3,0.3,0.3v0c0.1,0,0.1,0,0.2,0l1.6-0.3c0.4-0.1,0.5-0.6,0.1-0.8l-0.7-0.4c1.1-2.4,0.7-5.2-1-7.3
			C390.8,1516.3,388.7,1515.4,386.5,1515.5L386.5,1515.5z M366.3,1521.9h1h4.3h1c0,0.3,0.2,0.5,0.5,0.5c0,0,0,0,0,0h3.3
			c0.3,0,0.5-0.2,0.5-0.5c0,0,0,0,0,0h5.3h0.5h0.5v2.1h-1h-14.9h-1V1521.9z M373.4,1526.8l-1.5,0.3c-0.4,0.1-0.5,0.6-0.1,0.8
			l0.5,0.3c-1,2.1-0.7,4.7,0.8,6.5c1.7,2,4.5,2.8,7,1.9l-0.4-1c-2.1,0.7-4.4,0.1-5.8-1.6c-1.2-1.5-1.5-3.6-0.7-5.3l0.5,0.3
			c0.3,0.2,0.7-0.1,0.6-0.5l-0.5-1.4c0-0.1-0.2-0.2-0.3-0.3C373.5,1526.8,373.5,1526.8,373.4,1526.8L373.4,1526.8z M381.8,1529.4
			c-0.3,0-0.5,0.2-0.5,0.5v9h-0.5c-0.3,0-0.5,0.2-0.5,0.5v3.2c0,0.3,0.2,0.5,0.5,0.5h1.6h14.9h1.6c0.3,0,0.5-0.2,0.5-0.5v-3.2
			c0-0.3-0.2-0.5-0.5-0.5h-0.5v-9c0-0.3-0.2-0.5-0.5-0.5H381.8z M382.3,1530.4h14.9v8.5h-14.9L382.3,1530.4z M381.2,1540h1h4.3h1
			c0,0.3,0.2,0.5,0.5,0.5c0,0,0,0,0,0h3.3c0.3,0,0.5-0.2,0.5-0.5c0,0,0,0,0,0h5.3h0.5h0.5v2.1h-1h-14.9h-1V1540z"/>
	</g>
	<path class="st1" d="M264.2,450.5c-0.8,0-1.5,0.6-1.5,1.5v6.9c0,0.8,0.6,1.5,1.5,1.5h4.4v1.8l-1.8,0c-0.4,0-0.7,0.3-0.7,0.7
		c0,0.4,0.3,0.7,0.7,0.7h5.1c0.4,0,0.7-0.3,0.7-0.7s-0.3-0.7-0.7-0.7H270v-1.8h4.4c0.8,0,1.5-0.6,1.5-1.5v-6.9
		c0-0.8-0.6-1.5-1.5-1.5H270v-2.3c0.4-0.2,0.8-0.5,0.9-0.9h7.2c0.4,0.9,1.5,1.3,2.4,0.9c0.4-0.2,0.7-0.5,0.9-0.9h7.2
		c0.2,0.4,0.5,0.8,0.9,0.9v2.3h-4.4c-0.8,0-1.5,0.6-1.5,1.5v6.9c0,0.8,0.6,1.5,1.5,1.5h4.4v1.8h-1.8c-0.4,0-0.7,0.3-0.7,0.7
		s0.3,0.7,0.7,0.7h5.1c0.4,0,0.7-0.3,0.7-0.7s-0.3-0.7-0.7-0.7h-1.8v-1.8l4.4,0c0.8,0,1.5-0.6,1.5-1.5v-6.9c0-0.8-0.6-1.5-1.5-1.5
		h-4.4v-2.3c0.9-0.4,1.3-1.5,0.9-2.4c-0.4-0.9-1.5-1.3-2.4-0.9c-0.4,0.2-0.8,0.5-0.9,0.9h-7.2c-0.2-0.4-0.5-0.8-0.9-0.9v-2.3h2.5
		c0.4,0,0.7-0.3,0.7-0.7c0-0.4-0.3-0.7-0.7-0.7h-2.5v-1.8h5.4c0.8,0,1.5-0.6,1.5-1.5v-7.3c0-0.8-0.6-1.5-1.5-1.5h-12.3
		c-0.8,0-1.5,0.6-1.5,1.5v7.3c0,0.8,0.6,1.5,1.5,1.5h5.4v1.8h-2.5c-0.4,0-0.7,0.3-0.7,0.7c0,0.4,0.3,0.7,0.7,0.7h2.5v2.3
		c-0.4,0.2-0.8,0.5-0.9,0.9H271c-0.4-0.9-1.5-1.3-2.4-0.9c-0.9,0.4-1.3,1.5-0.9,2.4c0.2,0.4,0.5,0.8,0.9,0.9v2.3H264.2z
		 M295.4,458.8h-10.2v-6.9h10.2V458.8z M273.7,430.5H286v7.3l-12.3,0V430.5z M279.8,446.9c-0.2,0-0.4-0.2-0.4-0.4
		c0-0.2,0.2-0.4,0.4-0.4c0.2,0,0.4,0.2,0.4,0.4C280.2,446.7,280,446.9,279.8,446.9z M290.3,446.1c0.2,0,0.4,0.2,0.4,0.4
		c0,0.2-0.2,0.4-0.4,0.4c-0.2,0-0.4-0.2-0.4-0.4C290,446.3,290.1,446.1,290.3,446.1z M269.3,446.1c0.2,0,0.4,0.2,0.4,0.4
		c0,0.2-0.2,0.4-0.4,0.4c-0.2,0-0.4-0.2-0.4-0.4C269,446.3,269.1,446.1,269.3,446.1z M274.4,458.8h-10.2v-6.9h10.2V458.8z"/>
	<g transform="translate(0,-1020.3622)">
		<path class="st1" d="M206.9,1286.6c-0.3,0-0.6,0.3-0.6,0.6l-2.3,8.2c-0.1,0.1-0.1,0.2-0.1,0.3l0,12.2c0,0.3,0.3,0.6,0.6,0.6h31.7
			c0.3,0,0.6-0.3,0.6-0.6v-12.2c0-0.1,0-0.2-0.1-0.3l-2.2-8.2c0-0.3-0.3-0.6-0.6-0.6H206.9z M207.5,1287.8l25.8,0l2.1,7.3l-30.2-0.1
			L207.5,1287.8z M205.1,1296.4h30.5l0,11h-30.5V1296.4z M206.9,1297.6c-0.3,0-0.6,0.3-0.6,0.6v2.4c0,0.3,0.3,0.6,0.6,0.6h2.4
			c0.3,0,0.6-0.3,0.6-0.6l0-2.4c0-0.3-0.3-0.6-0.6-0.6H206.9z M211.8,1297.6c-0.3,0-0.6,0.3-0.6,0.6v2.4c0,0.3,0.3,0.6,0.6,0.6h2.4
			c0.3,0,0.6-0.3,0.6-0.6v-2.4c0-0.3-0.3-0.6-0.6-0.6H211.8z M216.7,1297.6c-0.3,0-0.6,0.3-0.6,0.6v2.4c0,0.3,0.3,0.6,0.6,0.6h2.4
			c0.3,0,0.6-0.3,0.6-0.6v-2.4c0-0.3-0.3-0.6-0.6-0.6H216.7z M221.6,1297.6c-0.3,0-0.6,0.3-0.6,0.6v2.4c0,0.3,0.3,0.6,0.6,0.6h2.4
			c0.3,0,0.6-0.3,0.6-0.6v-2.4c0-0.3-0.3-0.6-0.6-0.6H221.6z M207.5,1298.8h1.2v1.2h-1.2V1298.8z M212.4,1298.8h1.2v1.2h-1.2V1298.8
			z M217.3,1298.8h1.2v1.2h-1.2V1298.8z M222.2,1298.8h1.2v1.2h-1.2V1298.8z M226.4,1298.8c-0.3,0-0.6,0.3-0.6,0.6
			c0,0.3,0.3,0.6,0.6,0.6c0.3,0,0.6-0.3,0.6-0.6C227,1299.1,226.8,1298.8,226.4,1298.8z M228.3,1298.8v6.1h1.2v-6.1H228.3z
			 M230.7,1298.8v6.1h1.2v-6.1H230.7z M233.1,1298.8v6.1h1.2v-6.1H233.1z M226.4,1301.2c-0.3,0-0.6,0.3-0.6,0.6
			c0,0.3,0.3,0.6,0.6,0.6c0.3,0,0.6-0.3,0.6-0.6C227,1301.5,226.8,1301.2,226.4,1301.2z M206.9,1302.5c-0.3,0-0.6,0.3-0.6,0.6v2.4
			c0,0.3,0.3,0.6,0.6,0.6h2.4c0.3,0,0.6-0.3,0.6-0.6v-2.4c0-0.3-0.3-0.6-0.6-0.6H206.9z M211.8,1302.5c-0.3,0-0.6,0.3-0.6,0.6v2.4
			c0,0.3,0.3,0.6,0.6,0.6h2.4c0.3,0,0.6-0.3,0.6-0.6v-2.4c0-0.3-0.3-0.6-0.6-0.6H211.8z M216.7,1302.5c-0.3,0-0.6,0.3-0.6,0.6v2.4
			c0,0.3,0.3,0.6,0.6,0.6h2.4c0.3,0,0.6-0.3,0.6-0.6l0-2.4c0-0.3-0.3-0.6-0.6-0.6H216.7z M221.6,1302.5c-0.3,0-0.6,0.3-0.6,0.6v2.4
			c0,0.3,0.3,0.6,0.6,0.6h2.4c0.3,0,0.6-0.3,0.6-0.6v-2.4c0-0.3-0.3-0.6-0.6-0.6H221.6z M207.5,1303.7h1.2v1.2h-1.2V1303.7z
			 M212.4,1303.7h1.2v1.2h-1.2V1303.7z M217.3,1303.7h1.2v1.2h-1.2V1303.7z M222.2,1303.7h1.2v1.2h-1.2V1303.7z M226.4,1303.7
			c-0.3,0-0.6,0.3-0.6,0.6s0.3,0.6,0.6,0.6c0.3,0,0.6-0.3,0.6-0.6S226.8,1303.7,226.4,1303.7z"/>
	</g>
	<g>
		<path class="st1" d="M294.3,13.3v1c4,0,7.3,3.3,7.3,7.3h1C302.6,17,298.8,13.3,294.3,13.3z"/>
		<path class="st1" d="M294.3,15.7v1c2.7,0,4.9,2.2,4.9,4.9h1C300.1,18.3,297.5,15.7,294.3,15.7z"/>
		<path class="st1" d="M294.3,18.1v1c1.4,0,2.5,1.1,2.5,2.5h1C297.7,19.6,296.2,18.1,294.3,18.1z"/>
		<path class="st1" d="M294.8,20.4l-0.7,0.7c-0.4-0.2-0.8-0.4-1.3-0.4c-0.6,0-1.1,0.2-1.5,0.6l-11.5,0.3l-0.3-0.4l-0.3,0.3
			c-4.2,4.2-4.2,11.1,0,15.3c0.1,0.1,0.3,0.3,0.5,0.4v3l-1.9,0.5v2.3l8.7,0v-2.3l-1.9-0.5v-0.6c0.8,0.2,1.5,0.3,2.4,0.3
			c2.9,0,5.6-1.1,7.6-3.2l0.3-0.3l-0.3-0.4l0.3-11.5c0.3-0.4,0.6-1,0.6-1.5c0-0.5-0.1-1-0.4-1.3l0.7-0.7L294.8,20.4z M292.8,21.6
			c0.8,0,1.4,0.6,1.4,1.4s-0.6,1.4-1.4,1.4s-1.4-0.6-1.4-1.4S292,21.6,292.8,21.6z M291.7,25.2l-2.2,6.2l-5-5l6.1-2.2
			C290.8,24.6,291.2,25,291.7,25.2z M290.5,22.2c-0.2,0.6-0.1,0.9-0.1,0.9l-6.7,2.4l-3.1-3.1L290.5,22.2z M285.2,41.6v0.6l-6.7,0
			v-0.6l1.9-0.5l0-3c0.9,0.6,1.9,1.1,2.9,1.4v1.6L285.2,41.6z M286.6,39.1c-2.6,0-5.1-1-7-2.9c-3.8-3.8-3.8-9.8-0.3-13.6l13.9,13.9
			C291.4,38.2,289.1,39.1,286.6,39.1z M290.2,32.1l2.4-6.7c0,0,0.5,0,0.9-0.1l-0.3,9.9L290.2,32.1z"/>
	</g>
	<g>
		<polygon class="st1" points="232,561.1 232,558.1 232,558.1 232,558.1 231.5,558.4 231,558.1 231,561.1 231.5,560.8 		"/>
		<polygon class="st1" points="215.7,566.9 215.7,572 216.2,571.7 216.7,572 216.7,566.9 216.2,567.2 		"/>
		<polygon class="st1" points="247.3,572 247.3,566.9 246.8,567.2 246.3,566.9 246.3,572 246.8,571.7 		"/>
		<polygon class="st1" points="223.2,581.8 221.9,581 221.9,581.6 221.6,581.8 221.4,581.8 225.8,584.4 225.8,583.8 226.3,583.6 		
			"/>
		<polygon class="st1" points="221.9,557.3 221.9,557.9 223.2,557.1 226.3,555.3 225.8,555.1 225.8,554.5 221.4,557 221.6,557.1 		
			"/>
		<polygon class="st1" points="241.1,557.9 241.1,557.3 241.5,557.1 241.6,557 237.2,554.5 237.2,555.1 236.7,555.3 239.9,557.1 		
			"/>
		<polygon class="st1" points="241.1,581.6 241.1,581 239.9,581.8 236.7,583.6 237.2,583.8 237.2,584.4 241.6,581.8 241.5,581.8 		
			"/>
		<polygon class="st1" points="239,573.8 238.5,574 239.9,574.8 241.1,575.6 241.1,575 241.5,574.8 241.6,574.7 239,573.2 		"/>
		<polygon class="st1" points="223.2,574.8 224.6,574 224.1,573.8 224.1,573.2 221.4,574.7 221.6,574.8 221.9,575 221.9,575.6 		"/>
		<path class="st1" d="M225,565.1l-0.5,0.3v0.5v7v0.6l0.5,0.3l1.8,1l1.7,0.9l2.6,1.5l0.5,0.3l0.5-0.3l2.6-1.5l1.7-0.9l1.8-1l0.5-0.3
			v-0.6v-7v-0.5l-0.5-0.3l-6-3.5l-0.5-0.3l-0.5,0.3L225,565.1z M231,570.3v4.5v0.2v0.4l-1.1-0.6l-3.4-1.9l-0.5-0.3V572v-5.2l0.3,0.2
			l4.1,2.4l0.5,0.3V570.3z M236.9,566.8v5.2v0.6l-0.5,0.3l-3.4,1.9l-1.1,0.6V575v-0.2v-4.5v-0.6l0.5-0.3l4.1-2.4L236.9,566.8z
			 M232,563.5l4.5,2.6l-0.3,0.2l-4.1,2.4l-0.5,0.3l-0.5-0.3l-4.1-2.4l-0.3-0.2l4.5-2.6l0.5-0.3L232,563.5z"/>
		<path class="st1" d="M211.5,563.9L211.5,563.9l4.3,2.5l0.5,0.3l0.5-0.3l4.3-2.5l0.5-0.3v-0.6v-4.9v0v-0.5l-0.5-0.3l-0.3-0.2
			l-3.9-2.3l-0.5-0.3l-0.5,0.3l-3.9,2.3l-0.3,0.2l-0.5,0.3l0,0l0,0v0.6l0,4.9v0.6L211.5,563.9L211.5,563.9z M220.3,558.8v3.7v0.6
			l-0.5,0.3l-3.2,1.8v-0.5v-3.3v-0.6l0.5-0.3l2.8-1.7L220.3,558.8z M214,557.1l1.8-1l0.5-0.3l0.5,0.3l1.8,1l1.4,0.8l-0.2,0.1
			l-0.1,0.1l-2.8,1.7l-0.5,0.3l-0.5-0.3l-2.8-1.7l-0.1-0.1l-0.2-0.1L214,557.1z M212.1,562.4v-3.7l0.3,0.2l2.8,1.7l0.5,0.3v0.6v3.3
			v0.4l-3.2-1.8l-0.5-0.3V562.4z"/>
		<path class="st1" d="M230.3,557.1l0.7,0.4l0.5,0.3l0.5-0.3l0.7-0.4l3.6-2.1l0.5-0.3l0-0.6v-4.9v-0.6l-0.5-0.3L232,546l-0.5-0.2
			l-0.5,0.3l-4.3,2.5l-0.5,0.3l0,0l0,0v0.6v4.9v0.6l0.5,0.3L230.3,557.1z M235.6,549.9v1.1v0.9v1.7v0.6l-0.5,0.3l-3.2,1.8v-0.4v-3.1
			v-0.2V552l0.5-0.3l2.2-1.3l0.6-0.4L235.6,549.9z M231,547.3l0.5-0.3l0.5,0.3l3.2,1.8l-0.3,0.2l-1.1,0.6l-1.8,1l-0.5,0.3L231,551
			l-0.2-0.1l-2.7-1.6l-0.3-0.2L231,547.3z M227.4,553.6v-3.7l0.3,0.2l2.2,1.3l0.7,0.4l0.5,0.3v0.2v0.4v3.3v0.4l-3.2-1.8l-0.5-0.3
			V553.6z"/>
		<path class="st1" d="M232.7,581.8l-0.7-0.4l-0.5-0.3l-0.5,0.3l-0.7,0.4l-3.6,2.1l-0.5,0.3v0.5v4.9v0.6l0.5,0.3l4.3,2.5l0.5,0.3
			l0,0l0,0l0.5-0.3l4.3-2.5l0.5-0.3v-0.6v-4.9v-0.5l-0.5-0.3L232.7,581.8z M231,587.9l0,3.3v0.4l-3.2-1.8l-0.5-0.3v-0.6v-3.7
			l0.3,0.2l2.8,1.7l0.5,0.3V587.9z M231.5,586.5l-0.5-0.3l-2.8-1.7l-0.3-0.2l3.2-1.8l0.5-0.3l0.5,0.3l3.2,1.8l-0.3,0.2l-2.8,1.7
			L231.5,586.5z M235.6,589v0.6l-0.5,0.3l-3.2,1.8v-0.4l0-3.3v-0.6l0.5-0.3l2.8-1.7l0.3-0.2L235.6,589z"/>
		<path class="st1" d="M251.2,574.8l-3.9-2.3l-0.5-0.3l-0.5,0.3l-3.9,2.3l-0.3,0.2l-0.5,0.3v0.5v0.1v4.9v0v0.5l0.5,0.3l0.3,0.2
			l3.9,2.3l0.5,0.3l0,0l0,0l0.5-0.3l3.9-2.3l0.3-0.2l0.5-0.3v-0.6v-4.9v-0.6l-0.5-0.3L251.2,574.8z M246.3,579.1v1.7v0.9v0.6v0.4
			l-1.8-1l-1.4-0.8l-0.2-0.1l-0.2-0.1v-0.5v-3.7l0.3,0.2l2.8,1.7l0.5,0.3C246.3,578.6,246.3,579.1,246.3,579.1z M246.8,577.7
			l-0.5-0.3l-2.8-1.7l-0.1,0l-0.2-0.1l1.4-0.8l1.8-1l0.5-0.3l0.5,0.3l1.8,1l1.4,0.8l-0.2,0.1l0,0l-0.1,0.1l-2.8,1.7L246.8,577.7z
			 M250.9,580.1v0.6l-0.2,0.1l-0.2,0.1l-1.4,0.8l-1.8,1v-0.4v-0.6v-0.9v-1.7v-0.6l0.5-0.3l2.8-1.7l0.3-0.2V580.1z"/>
		<path class="st1" d="M252,557.6l-0.5-0.3l-0.3-0.2l-3.9-2.3l-0.5-0.3l-0.5,0.3l-3.9,2.3l-0.3,0.2l-0.5,0.3v0.5v0.1v4.9v0.6
			l0.5,0.3l4.3,2.5l0.5,0.3l0.5-0.3l4.3-2.5l0,0l0,0l0.5-0.3v-0.6v-5V557.6L252,557.6L252,557.6z M246.3,561.4v3.3v0.4l-3.2-1.8
			l-0.5-0.3v-0.6v-3.7l0.3,0.2l2.8,1.7l0.5,0.3V561.4z M246.8,560.1l-0.5-0.3l-2.8-1.7l-0.1,0l-0.2-0.1l1.4-0.8l1.8-1l0.5-0.3
			l0.5,0.3l1.8,1l1.4,0.8l-0.2,0.1l-0.1,0.1l-2.8,1.7L246.8,560.1z M250.9,562.4v0.6l-0.5,0.3l-3.2,1.8v-0.4v-3.3v-0.6l0.5-0.3
			l2.8-1.7l0.3-0.2V562.4z"/>
		<path class="st1" d="M221.4,580.8L221.4,580.8v-5v-0.1v-0.5l-0.5-0.3l-0.3-0.1l-3.9-2.3l-0.5-0.3l-0.5,0.3l-3.9,2.3l-0.3,0.2
			l-0.5,0.3v0.6v4.9v0.5l0,0l0,0l0.5,0.3l0.3,0.2l3.9,2.3l0.5,0.3l0,0l0,0l0.5-0.3l3.9-2.3l0.3-0.2l0.5-0.3V580.8z M215.7,579.1v1.7
			v0.9v0.6v0.4l-1.8-1l-1.4-0.8l-0.2-0.1l-0.2-0.1v-0.6v-3.7l0.3,0.2l2.8,1.7l0.5,0.3V579.1z M216.2,577.7l-0.5-0.3l-2.8-1.7
			l-0.1-0.1l-0.2-0.1l1.4-0.8l1.8-1l0.5-0.3l0.5,0.3l1.8,1l1.4,0.8l-0.2,0.1l-0.1,0.1l-2.8,1.7L216.2,577.7z M220.3,580.1v0.5
			l-0.2,0.2l-0.2,0.1l-1.4,0.8l-1.8,1v-0.4v-0.6v-0.9v-1.7v-0.6l0.5-0.3l2.8-1.7l0.3-0.2V580.1z"/>
	</g>
	<g>
		<path class="st1" d="M210.8,165.3c1.4,0,2.4-1,2.4-2.3v-3.6v0v0l0-19.3c0-1.3-1.1-2.3-2.4-2.3h-3.2c-0.4,0-0.7,0.3-0.7,0.7
			s0.3,0.7,0.7,0.7h3.2c0.5,0,1,0.4,1,0.9v18.6l-34.6,0l0-18.6c0-0.5,0.4-0.9,1-0.9h3.2c0.4,0,0.7-0.3,0.7-0.7s-0.3-0.7-0.7-0.7
			h-3.3c-1.3,0-2.4,1-2.4,2.3l0,19.3v0v0v3.6c0,1.3,1.1,2.3,2.4,2.3l15.6,0v3.7h-6.3c-0.4,0-0.7,0.3-0.7,0.7s0.3,0.7,0.7,0.7l14.1,0
			c0.4,0,0.7-0.3,0.7-0.7c0-0.4-0.3-0.7-0.7-0.7h-6.3v-3.7L210.8,165.3L210.8,165.3z M178.1,163.8c-0.5,0-1-0.4-1-0.9V160l34.6,0
			l0,2.9c0,0.5-0.4,0.9-1,0.9L178.1,163.8z"/>
		<path class="st1" d="M182.9,144.3c0,6.4,5.2,11.6,11.6,11.6c6.4,0,11.6-5.2,11.6-11.6c0-6.4-5.2-11.6-11.6-11.6
			C188.1,132.8,182.9,138,182.9,144.3z M198.2,153.7c0.5-0.7,1-1.6,1.4-2.5c0.5,0.3,1,0.6,1.4,0.9
			C200.1,152.8,199.2,153.3,198.2,153.7z M202,151c-0.5-0.4-1.1-0.8-1.9-1.3c0.4-1.4,0.6-3,0.7-4.7h3.7
			C204.3,147.4,203.4,149.4,202,151z M204.5,143.6h-3.7c0-1.7-0.3-3.2-0.7-4.6c0.8-0.4,1.5-0.9,2-1.3
			C203.4,139.3,204.4,141.4,204.5,143.6z M201,136.7c-0.4,0.3-0.9,0.6-1.4,0.9c-0.4-1-0.9-1.9-1.5-2.7
			C199.2,135.4,200.2,136,201,136.7z M195.2,134.5c1.3,0.4,2.3,1.8,3.1,3.8c-0.9,0.3-1.9,0.6-3.1,0.7V134.5z M195.2,140.4
			c1.3-0.1,2.5-0.4,3.5-0.8c0.3,1.2,0.5,2.6,0.6,4h-4.1V140.4z M195.2,145.1h4.1c0,1.5-0.2,2.9-0.6,4.1c-1-0.4-2.2-0.7-3.5-0.8
			V145.1z M195.2,149.9c1.2,0.1,2.2,0.3,3.1,0.7c-0.8,1.9-1.8,3.4-3.1,3.7V149.9z M184.4,145.1h3.7c0,1.7,0.3,3.3,0.7,4.7
			c-0.8,0.4-1.4,0.9-1.9,1.3C185.5,149.5,184.6,147.4,184.4,145.1z M188,152.1c0.3-0.3,0.8-0.6,1.3-0.9c0.4,1,0.8,1.8,1.4,2.5
			C189.7,153.3,188.8,152.8,188,152.1z M193.7,154.3c-1.2-0.4-2.3-1.8-3.1-3.7c0.9-0.3,1.9-0.6,3.1-0.7V154.3z M193.7,148.4
			c-1.3,0.1-2.5,0.4-3.5,0.8c-0.3-1.3-0.5-2.6-0.6-4.1l4.1,0V148.4z M193.7,143.6h-4.1c0-1.4,0.2-2.8,0.6-4c1,0.4,2.2,0.7,3.5,0.8
			V143.6z M193.7,134.5v4.5c-1.2-0.1-2.2-0.3-3.1-0.7C191.4,136.3,192.5,134.9,193.7,134.5z M190.7,135c-0.6,0.7-1.1,1.6-1.5,2.7
			c-0.5-0.3-1-0.6-1.4-0.9C188.8,135.9,189.7,135.4,190.7,135z M188.8,139c-0.4,1.4-0.6,2.9-0.7,4.6h-3.7c0.1-2.2,1.1-4.3,2.5-5.9
			C187.3,138.1,188,138.6,188.8,139z"/>
		<path class="st1" d="M181.7,127.4l-3.9,0.1l1.1,3.6l1.4-0.4l-0.2-0.9c0.4,0.3,0.7,0.6,1.1,1c0.8,0.8,1.4,1.8,1.8,2.9l1.4-0.4
			c-0.4-1.3-1.1-2.5-2.1-3.5c-0.3-0.3-0.7-0.6-1-0.9h0.6L181.7,127.4z"/>
		<path class="st1" d="M204.8,133.3l1.4,0.4c0.3-1.1,1-2.1,1.8-2.9c0.3-0.3,0.7-0.7,1.1-1l-0.2,0.9l1.4,0.4l1.1-3.6l-3.9-0.1l0,1.5
			h0.6c-0.3,0.3-0.7,0.6-1,0.9C206,130.8,205.2,132,204.8,133.3z"/>
		<path class="st1" d="M195.2,125l0.3,0.8l1.4-0.5l-1.5-3.5l-3.2,2.4l0.9,1.2l0.5-0.4c-0.1,0.4-0.2,0.9-0.2,1.4
			c-0.1,1.4,0,2.7,0.5,4l1.4-0.5c-0.4-1.1-0.5-2.2-0.4-3.4C195,126,195.1,125.5,195.2,125z"/>
	</g>
</g>
</svg>
