<?xml version="1.0" encoding="utf-8"?>
<!-- Generator: Adobe Illustrator 22.0.0, SVG Export Plug-In . SVG Version: 6.00 Build 0)  -->
<svg version="1.1" id="Calque_1" xmlns="http://www.w3.org/2000/svg" xmlns:xlink="http://www.w3.org/1999/xlink" x="0px" y="0px"
	 viewBox="0 0 244.6 65" style="enable-background:new 0 0 244.6 65;" xml:space="preserve">
<style type="text/css">
	.st0{fill:#FFFFFF;}
	.st1{fill:#FFFFFF;stroke:#FFFFFF;stroke-width:0.6444;stroke-miterlimit:10;}
</style>
<g id="Logo">
	<g>
		<path class="st0" d="M72.5,15.8l-3,2.9L68,17.2C59.5,8.8,48.1,4.1,36,4.1c-11.2,0-21.8,4-30.1,11.3l4.7,4.7c7-6.1,16-9.5,25.5-9.5
			c10.3,0,20,4,27.2,11.1l1.5,1.5L54.4,33.7l-1.5-1.5c-4.4-4.4-10.3-6.8-16.6-6.8c-5.5,0-10.7,1.9-14.9,5.3l4.7,4.7
			c2.9-2.3,6.5-3.5,10.3-3.5c9.2,0,16.8,7.4,16.8,16.5S45.7,65,36.4,65h-2.1V43h4.2v17.7c5.9-1,10.5-6.1,10.5-12.2
			C49,41.6,43.4,36,36.4,36c-3.4,0-6.5,1.3-8.9,3.6L26,41.1l-3-2.9l-7.7-7.6l1.5-1.5c5.2-5.1,12.1-7.9,19.4-7.9c6.7,0,13,2.3,18,6.6
			l4.6-4.6c-6.3-5.5-14.3-8.5-22.7-8.5c-9.1,0-17.6,3.5-24.1,9.7l-0.2,0.2l-1.3,1.2L0,15.4l1.5-1.5C10.8,4.9,23.1,0,36.1,0
			C49.3,0,61.7,5.1,71,14.3L72.5,15.8z"/>
	</g>
	<g>
		<g>
			<path class="st0" d="M113.7,42H108L96.2,27.9V42h-5.7V19h5.7L108,33V19h5.7V42z"/>
			<path class="st0" d="M136.4,19v5.1h-12.2v4h10.2v4.8h-10.2v4h12.2V42h-17.8V19H136.4z"/>
			<path class="st0" d="M161.8,24.1h-8.3V42h-5.7V24.1h-8.3V19h22.2v5.1H161.8z"/>
			<path class="st0" d="M186.6,36.4c-2.1,3.5-6,6-10.9,6c-7.3,0-12.6-5.3-12.6-12.1c0-6.4,5.3-11.7,12.6-11.7c5,0,8.9,2.3,11,5.8
				l-4.8,2.7c-1.1-2.1-3.3-3.5-6.2-3.5c-4.1,0-6.9,2.9-6.9,6.7c0,3.7,2.8,6.9,6.9,6.9c2.9,0,5-1.5,6.1-3.5L186.6,36.4z"/>
			<path class="st0" d="M212.2,30.5c0,6.6-5.4,11.9-12,11.9c-6.7,0-12-5.3-12-11.9c0-6.5,5.3-11.9,12-11.9
				C206.8,18.6,212.2,24,212.2,30.5z M193.3,30.5c0,3.8,3.1,6.8,6.9,6.8c3.7,0,6.8-3,6.8-6.8c0-3.7-3.1-6.7-6.8-6.7
				C196.4,23.8,193.3,26.8,193.3,30.5z"/>
			<path class="st0" d="M244.6,42H239V30.3L233.4,42h-6.3l-5.6-11.7V42h-5.6V19h6.2l8.1,16.9l8.1-16.9h6.3L244.6,42L244.6,42z"/>
		</g>
		<g>
			<path class="st1" d="M99.9,60.5c-1.2,1.1-2.9,1.6-4.9,1.6h-4.4V50.2H95c2,0,3.7,0.5,4.9,1.6c1.2,1.1,1.9,2.5,1.9,4.3
				C101.8,57.9,101.2,59.4,99.9,60.5z M92.1,51.5v9.3h2.8c1.5,0,2.8-0.4,3.8-1.3c1-0.8,1.5-2,1.5-3.4s-0.5-2.6-1.5-3.4
				c-1-0.8-2.3-1.3-3.8-1.3h-2.8V51.5z"/>
			<path class="st1" d="M115.3,62.1h-1.6l-1.3-2.6h-7.1l-1.2,2.6h-1.6l5.7-11.9h1.4L115.3,62.1z M106,58.2h5.9L109,52L106,58.2z"/>
			<path class="st1" d="M124,50.2h1.8l-4.9,7.3V62h-1.6v-4.5l-4.9-7.3h1.8l3.5,5.3l0.4,0.8l0,0l0.4-0.8L124,50.2z"/>
			<path class="st1" d="M127.5,59.9c0.1,0.1,0.3,0.2,0.4,0.3c0.2,0.1,0.6,0.3,1.3,0.5s1.4,0.3,2.1,0.3c1.1,0,1.9-0.2,2.5-0.5
				c0.5-0.4,0.8-0.9,0.8-1.5s-0.2-1-0.7-1.3s-1.4-0.7-2.8-1c-1.6-0.4-2.7-0.9-3.4-1.4c-0.7-0.5-1-1.2-1-2.1c0-1,0.4-1.7,1.3-2.3
				c0.8-0.6,2-0.9,3.5-0.9c0.6,0,1.1,0,1.6,0.1s0.9,0.2,1.3,0.3s0.6,0.2,0.8,0.3s0.4,0.2,0.5,0.3l0.2,0.1l-0.8,1.1
				c-0.1-0.1-0.2-0.2-0.4-0.3s-0.6-0.3-1.2-0.4c-0.6-0.2-1.3-0.3-2-0.3c-0.9,0-1.7,0.2-2.3,0.5s-0.9,0.8-0.9,1.4
				c0,0.5,0.2,0.9,0.7,1.2s1.4,0.6,2.8,1c1.6,0.4,2.8,0.9,3.4,1.5c0.7,0.6,1,1.3,1,2.2c0,1-0.4,1.8-1.3,2.4c-0.8,0.6-2,0.9-3.6,0.9
				c-0.6,0-1.2,0-1.7-0.1s-1-0.2-1.3-0.3s-0.7-0.3-0.9-0.4c-0.3-0.1-0.4-0.3-0.5-0.4l-0.2-0.1L127.5,59.9z"/>
			<path class="st1" d="M142.3,50.2h4.6v11.9h-1.6V51.5h-3V50.2z"/>
			<path class="st1" d="M150,62c-0.2-0.2-0.3-0.4-0.3-0.6c0-0.3,0.1-0.5,0.3-0.7s0.4-0.3,0.7-0.3s0.5,0.1,0.7,0.3s0.3,0.4,0.3,0.7
				s-0.1,0.5-0.3,0.6c-0.2,0.2-0.4,0.3-0.7,0.3S150.2,62.2,150,62z"/>
			<path class="st1" d="M155,60.6c-1-1.2-1.5-2.7-1.5-4.4c0-1.8,0.5-3.3,1.5-4.4c1-1.2,2.4-1.8,4.1-1.8c1.7,0,3.1,0.6,4.1,1.8
				s1.5,2.7,1.5,4.4c0,1.8-0.5,3.2-1.5,4.4s-2.4,1.8-4.1,1.8C157.3,62.3,156,61.8,155,60.6z M162,59.6c0.7-0.9,1.1-2.1,1.1-3.5
				s-0.4-2.6-1.1-3.5c-0.7-0.9-1.7-1.4-3-1.4s-2.2,0.5-3,1.4c-0.7,0.9-1.1,2.1-1.1,3.5s0.4,2.6,1.1,3.5c0.7,0.9,1.7,1.4,3,1.4
				S161.3,60.6,162,59.6z"/>
		</g>
	</g>
</g>
</svg>
